<svg width="246" height="80" fill="none" xmlns="http://www.w3.org/2000/svg"><g clip-path="url(#clip0)"><path d="M233.607 80c-.492 0-.984-.05-1.525-.198l-.541-.148c-2.312-.544-3.246-1.533-3.885-2.423l-1.672-2.423-2.755.94c-.245.099-.541.148-.836.198l-.491.099-.443.197c-.738.346-1.525.495-2.41.495-.442 0-.934-.05-1.426-.149l-.59-.098c-1.623-.347-2.902-1.138-3.738-2.275l-1.82-2.571-2.901 1.187c-1.771.741-3.738 1.087-5.804 1.087-.934 0-1.868-.099-2.803-.247-3.541-.593-6.639-2.175-8.901-4.549l-2.115-2.225-2.656 1.484-.393.198-.197.148c-1.771 1.236-3.984 1.879-6.541 1.879-.639 0-1.377-.05-2.066-.149-2.803-.296-5.065-1.087-6.737-2.274l-1.771-1.286-2.016.841c-1.722.692-3.787 1.088-6.099 1.088-.639 0-1.328-.05-1.967-.1-3-.246-5.459-.84-7.328-1.878l-1.869-.989-1.868.989a6.494 6.494 0 01-2.951.692h-.345l-.983-.05c-1.771-.098-3.197-.691-4.23-1.829l-2.114-2.373-2.754 1.533c-2.41 1.335-5.263 2.027-8.459 2.027h-5.705a7.023 7.023 0 01-2.853-.593l-1.672-.742-1.623.791c-.885.445-1.967.692-3.147.692-3.984.1-8.017.248-12 .445h-.443c-2.36 0-4.279-.989-5.41-2.818l-.098-.198-.148-.198a3.762 3.762 0 01-.59-.939l-1.525-2.967-3.147 1.039c-.443.148-.935.296-1.426.395l-2.41.544-.541 2.423c-.59 2.522-2.558 4.203-5.312 4.45l-.983.099c-.246 0-.492.05-.738.05a6.084 6.084 0 01-2.852-.693l-2.066-1.137-1.967 1.285c-1.918 1.286-4.476 2.126-7.525 2.522-1.18.148-2.262.247-3.295.247-1.475 0-2.803-.148-3.983-.494l-1.771-.445-1.475 1.038c-1.033.692-2.115 1.187-3.296 1.335-.393.05-.737.099-1.13.099-1.033 0-2.017-.247-2.951-.692l-2.607-1.236-1.967 2.076c-.836.89-2.066 1.533-3.492 1.78l-.934.198a6.078 6.078 0 01-1.328.148c-.492 0-.935-.05-1.427-.148l-1.622-.396-1.378.89c-.737.495-1.622.792-2.655 1.039-3.935.79-7.87 1.68-11.804 2.57-.639.15-1.23.199-1.82.199-.835 0-1.622-.149-2.31-.445l-.493-.198-.54-.05c-2.755-.296-4.771-2.225-5.509-5.34L.147 58.74c-.491-2.076-.295-3.856.64-5.39.934-1.482 2.41-2.471 4.377-2.966a359.48 359.48 0 0112.64-2.769 9.027 9.027 0 011.917-.197c.443 0 .836.049 1.279.148l1.721.346 1.427-1.088c.786-.593 1.72-.989 2.803-1.186l1.033-.198a7.466 7.466 0 011.475-.148c1.033 0 2.016.247 2.852.692l2.607 1.434 2.066-2.127c1.13-1.137 2.508-1.829 4.032-2.126.394-.049.787-.099 1.18-.099a8.38 8.38 0 013.296.693l2.065.94 1.82-1.385c2.016-1.484 4.623-2.423 7.82-2.868l1.475-.148 5.017-.346-1.574-4.846a6.086 6.086 0 01-.345-1.582L60.05 17.7c-.247-2.077.196-3.807 1.327-5.192 1.131-1.434 2.803-2.225 4.918-2.472 2.213-.247 4.475-.445 6.738-.643.836-.05 1.623-.099 2.36-.099 3.492 0 6.345.791 8.46 2.324l6.885 4.945-.689-8.505v-.247.05c-.098-2.028.541-3.907 1.869-5.39 1.525-1.68 3.787-2.67 6.393-2.769h.492c4.574 0 7.918 2.77 8.312 6.873l.049.396.098.395c.049.148.099.297.099.445l1.524 6.329 4.918-4.302c2.41-2.076 6-3.214 10.426-3.214h.05c3.442 0 6.295.594 8.459 1.682l1.967 1.038 1.869-1.187c.983-.643 2.164-.94 3.541-.94h.295l1.131.05c1.77.05 3.246.594 4.328 1.582l2.262 2.077 2.557-1.681c1.328-.89 2.755-1.335 4.279-1.335h.492c1.377.099 2.705.494 3.934 1.286l1.771 1.087 1.869-.84c.885-.396 1.918-.594 3-.594.246 0 .492 0 .787.05 4.475.346 9.049.791 13.524 1.285 2.213.248 3.836.99 4.869 2.275.885 1.137 1.279 2.521 1.082 4.153v.198c-.148 1.384-.639 2.521-1.426 3.362l-.394.396-.246.494c-.245.445-.491.84-.836 1.137l-.983.99-.148 1.482v.05c-.049.296-.098.593-.147.84l-.492 2.127 1.574 1.532c.147.149.246.297.393.445.885 1.088 1.23 2.423 1.033 4.005v.198c-.049.494-.197 1.038-.344 1.533L182.656 40l5.311.692c1.869.247 3.295.99 4.279 2.275l1.918 2.62 2.902-1.335c2.016-.94 4.229-1.384 6.541-1.384.934 0 1.918.099 2.901.247 3.394.544 6.394 1.978 8.656 4.153l2.311 2.225 2.607-1.83c.934-.642 2.016-.988 3.246-.988.442 0 .934.05 1.377.148l.688.149c2.41.494 3.541 1.483 4.427 2.867l1.623 2.473 2.803-.841c.049 0 .098-.05.147-.05l.689-.197.541-.346c.885-.594 1.918-.89 3.049-.89.541 0 1.131.05 1.721.197l.64.149c1.77.395 3.098 1.285 3.934 2.67.836 1.384 1.033 3.016.59 4.895l-3.885 16.316c-.688 2.868-2.606 4.697-5.115 4.895l-.59.05-.541.197c-.393.495-1.082.643-1.819.643z" fill="#74634D"/><path d="M73.721 34.363c-.098-1.087-.196-2.126-.295-3.213a55.53 55.53 0 012.853-.248c6.787-.593 10.23-3.51 9.836-8.85-.344-5.39-4.426-7.911-11.508-7.268-2.164.197-4.377.395-6.541.643-2.558.247-3.787 1.829-3.541 4.301.59 5.142 1.13 10.284 1.721 15.426.246 2.127 1.475 3.066 3.492 2.868.344-.05.688-.099 1.082-.099 2.115-.247 3.098-1.532 2.901-3.56zm-1.426-14.14c.885-.1 1.721-.149 2.607-.248 2.41-.198 3.737.742 3.885 2.62.148 1.83-.984 2.967-3.246 3.165-.885.1-1.82.148-2.705.247a193.673 193.673 0 01-.54-5.785zm19.574 16.069c1.574-.1 3.098-1.039 3.836-3.461a24.59 24.59 0 01.64-1.73c2.557-.15 5.114-.248 7.671-.347l.738 1.632c1.131 2.422 2.754 3.164 4.377 3.115 2.213-.05 4.18-1.681 3.885-2.275a908.177 908.177 0 00-8.754-18.59c-.246-.495-.639-.89-1.426-1.187 1.279-.791 2.016-2.126 1.967-3.709-.098-2.768-2.311-4.548-5.606-4.4-3.345.148-5.46 2.126-5.312 4.895.099 1.582.885 2.818 2.115 3.46-.836.347-1.18.841-1.377 1.385-2.312 6.428-4.574 12.905-6.689 19.382-.245.594 1.87 1.978 3.935 1.83zm7.426-27.985c1.033-.05 1.82.642 1.869 1.582.049.89-.689 1.631-1.721 1.68-1.033.05-1.82-.593-1.87-1.532-.048-.94.64-1.681 1.722-1.73zm.295 11.075c.935 2.126 1.918 4.252 2.853 6.378-1.722.05-3.443.148-5.164.247.787-2.225 1.573-4.4 2.311-6.625zm34.476 8.702c.098-4.153-3.541-6.032-8.361-7.021-2.557-.544-4.475-.643-4.475-1.928 0-1.138 1.082-1.73 3.295-1.73 2.311 0 4.869 1.087 6.442 2.471.148.1 2.705-1.532 2.754-3.46 0-1.088-.59-2.077-1.967-2.868-1.524-.89-3.934-1.533-7.328-1.533-6.836 0-10.573 2.818-10.475 7.466.098 4.648 4.18 6.032 8.213 6.823 2.41.445 4.279.692 4.279 2.077 0 1.137-1.033 1.73-3.345 1.73-2.557 0-5.557-1.236-7.131-2.521-.246-.149-2.459 1.68-2.41 3.362 0 1.137.541 2.126 1.82 2.917 1.476.94 4.033 1.632 7.721 1.632 7.181.05 10.82-2.473 10.968-7.417zm19.426 8.059c2.705.149 4.869-1.829 4.623-2.274-2.213-3.164-4.427-6.378-6.738-9.493 2.508-2.72 5.016-5.439 7.574-8.159.246-.395-1.574-2.719-4.23-2.867-1.377-.1-2.901.445-4.328 2.126a277.089 277.089 0 00-6.196 7.07c.098-2.175.196-4.301.246-6.477.098-2.175-1.033-3.263-3.246-3.362-.345 0-.738 0-1.082-.05-2.115-.049-3.295.99-3.345 3.116l-.442 16.365c-.049 2.127 1.033 3.264 3.049 3.313.344 0 .688 0 1.033.05 2.164.099 3.295-.99 3.393-3.115.099-2.176.197-4.302.246-6.478 1.869 2.522 3.689 5.093 5.508 7.615 1.181 1.879 2.508 2.521 3.935 2.62zm10.475.544c4.23.346 8.509.742 12.738 1.187 2.361.247 3.541-.544 3.738-2.423v-.148c.197-1.78-.787-2.62-3.197-2.868a291.88 291.88 0 00-9.246-.89c.099-1.088.197-2.225.295-3.313 2.017.198 4.033.346 6.049.594 2.41.247 3.541-.396 3.738-2.225v-.1c.197-1.68-.787-2.52-3.246-2.768-2.065-.198-4.082-.396-6.147-.593.098-.99.147-1.978.246-2.967l9.295.89c2.41.247 3.59-.395 3.787-2.274v-.149c.196-1.83-.787-2.818-3.246-3.065-4.377-.445-8.754-.89-13.132-1.236-2.557-.198-4.081 1.038-4.229 3.56-.344 4.895-.738 9.839-1.082 14.734-.049 2.472 1.23 3.856 3.639 4.054zM28.23 70.408c-.345-1.78-1.476-2.275-3.738-1.78a535.984 535.984 0 00-8.607 1.879l-.737-3.264c1.868-.444 3.786-.84 5.655-1.236 2.263-.494 3.099-1.434 2.705-3.213v-.1c-.344-1.68-1.426-2.175-3.787-1.68-1.918.395-3.787.84-5.705 1.236-.196-.94-.442-1.929-.639-2.868 2.902-.643 5.754-1.286 8.656-1.879 2.213-.445 3.098-1.434 2.754-3.313 0-.05 0-.098-.05-.148-.344-1.83-1.573-2.472-3.835-1.978a362.12 362.12 0 00-12.246 2.72c-2.36.544-3.394 2.175-2.754 4.647 1.13 4.796 2.311 9.593 3.442 14.389.59 2.472 2.164 3.411 4.427 2.867 3.934-.94 7.918-1.78 11.852-2.62 2.213-.445 3-1.533 2.656-3.412-.05-.148-.05-.198-.05-.247zm14.507-11.273a462.896 462.896 0 015.312-9.543c.148-.445-2.066-2.324-4.525-1.928-1.278.198-2.606 1.038-3.54 2.966-1.427 2.72-2.853 5.44-4.23 8.208-.393-2.126-.738-4.252-1.131-6.378-.394-2.126-1.623-3.016-3.738-2.62-.344.049-.688.148-1.033.197-1.967.396-2.852 1.632-2.459 3.758 1.033 5.34 2.066 10.73 3.099 16.069.393 2.077 1.623 2.967 3.54 2.62.345-.049.64-.098.984-.197 2.017-.396 2.853-1.632 2.46-3.758-.394-2.126-.739-4.252-1.132-6.378a408.296 408.296 0 016.738 6.329c1.426 1.532 2.852 1.879 4.131 1.68 2.508-.395 4.082-2.818 3.787-3.213-2.705-2.571-5.46-5.192-8.263-7.812zm18.886-5.241c-2.459-.198-4.279-.1-4.475-1.385-.148-1.137.787-1.879 2.852-2.126 2.213-.297 4.672.495 6.394 1.681.147.1 2.36-1.83 2.163-3.758-.098-1.087-.786-1.977-2.163-2.57-1.525-.693-3.886-1.039-7.082-.594-6.443.84-9.59 4.104-8.902 8.653.689 4.598 4.721 5.488 8.607 5.785 2.311.148 4.081.198 4.278 1.532.148 1.138-.787 1.83-2.901 2.127-2.361.296-5.361-.544-6.984-1.632-.295-.148-2.066 1.978-1.82 3.61.148 1.087.787 2.076 2.115 2.67 1.525.74 3.984 1.087 7.476.642 6.688-.84 9.786-3.807 9.295-8.702-.541-4.153-4.18-5.587-8.853-5.933zM80.95 43.263c-2.065.149-4.13.346-6.196.544-2.41.247-3.59 1.78-3.344 4.252.54 5.143 1.082 10.285 1.574 15.476.196 2.126 1.426 3.115 3.295 2.917.344-.049.688-.049.983-.099 2.017-.197 2.951-1.483 2.754-3.51-.098-1.088-.196-2.126-.295-3.214.886-.099 1.82-.148 2.705-.247 6.394-.544 9.64-3.362 9.344-8.752-.245-5.34-4.081-7.91-10.82-7.367zm.886 11.076c-.836.05-1.721.148-2.557.197-.148-1.928-.345-3.856-.492-5.834.836-.05 1.623-.148 2.459-.198 2.262-.197 3.54.742 3.688 2.67.099 1.88-.983 2.967-3.098 3.165zm28.623 4.351l-8.754.296-.148-3.312c1.918-.1 3.836-.149 5.754-.198 2.312-.05 3.295-.84 3.246-2.72v-.098c-.049-1.681-1.033-2.423-3.393-2.324-1.918.05-3.885.148-5.803.197l-.148-2.966a261.91 261.91 0 018.803-.297c2.263-.05 3.295-.84 3.246-2.769v-.197c-.049-1.83-1.131-2.67-3.393-2.62-4.181.098-8.312.246-12.492.493-2.41.1-3.689 1.583-3.541 4.104.295 4.895.59 9.84.836 14.735.148 2.521 1.525 3.757 3.787 3.609 4.033-.198 8.016-.346 12.049-.445 2.213-.05 3.246-.989 3.197-2.868v-.198c.049-1.78-.984-2.472-3.246-2.422zm15.393-17.157h-6.246c-2.213 0-3.786 1.384-3.737 3.955.049 4.945.147 9.84.197 14.784.049 2.126 1.77 3.807 3.934 3.807h5.557c7.377.05 12.148-4.203 12.394-11.125.246-6.922-4.328-11.372-12.099-11.421zm-.442 16.563h-2.361v-10.68h2.508c3.345 0 5.41 1.929 5.361 5.291-.049 3.461-2.262 5.439-5.508 5.39zm19.918-16.266c-.344 0-.689-.05-1.033-.05-2.016-.099-3.148.94-3.197 3.115l-.59 16.366c-.098 2.126.935 3.263 2.853 3.362.344 0 .639.05.983.05 2.017.098 3.099-.99 3.246-3.066.295-5.439.541-10.927.836-16.366.049-2.175-.983-3.313-3.098-3.412zm23.213 2.719c-1.377-.99-3.59-1.78-6.836-2.027-6.443-.495-10.18 2.076-10.426 6.675-.246 4.647 3.491 6.328 7.278 7.416 2.213.593 3.984.989 3.886 2.373-.099 1.138-1.132 1.632-3.246 1.484-2.41-.198-5.164-1.632-6.541-3.016-.246-.198-2.41 1.483-2.509 3.164-.049 1.088.394 2.176 1.525 3.066 1.328 1.038 3.639 1.878 7.18 2.175 6.689.495 10.328-1.78 10.82-6.625.394-4.104-2.902-6.28-7.377-7.565-2.361-.692-4.18-.99-4.082-2.275.098-1.137 1.131-1.68 3.246-1.483 2.213.148 4.475 1.434 5.902 2.917.147.1 2.705-1.335 2.852-3.263.049-1.088-.443-2.126-1.672-3.016zm17.656.791l-1.033-.148c-2.016-.248-3.197.692-3.443 2.818a741.727 741.727 0 01-1.229 10.334c-.295 2.62-1.328 3.46-3.492 3.263-1.672-.198-2.951-1.088-3.885-2.472-.099-.149-2.41.643-2.656 3.214-.246 2.768 2.115 4.697 6.984 5.24 5.803.693 9.295-1.829 10.131-8.256.442-3.462.934-6.923 1.377-10.433.344-2.077-.639-3.313-2.754-3.56zm18.049 2.324c-7.131-1.187-12.984 3.016-13.918 9.79-.885 6.773 3.295 12.262 10.131 13.399 6.787 1.137 12.59-2.72 13.869-9.493 1.328-6.774-2.853-12.51-10.082-13.696zm3.098 12.41c-.59 3.313-2.901 5.043-5.901 4.598-2.951-.494-4.623-2.917-4.131-6.23.491-3.411 2.852-5.191 5.901-4.697 3.049.495 4.721 3.016 4.131 6.33zm30.541-5.389c-.196-.05-.442-.1-.639-.149-2.016-.494-3.344.347-3.836 2.423-.64 2.868-1.279 5.785-1.918 8.653a451.855 451.855 0 00-5.951-12.015c-.738-1.335-1.18-1.928-2.902-2.274-.246-.05-.442-.1-.688-.149-1.82-.346-3.148.495-3.541 2.571-1.033 5.34-2.066 10.73-3.099 16.07-.393 2.076.394 3.362 2.263 3.757.196.05.393.1.639.149 1.967.395 3.197-.495 3.639-2.571.591-2.918 1.181-5.835 1.82-8.703 2.017 4.055 4.033 8.11 5.951 12.164.639 1.285 1.033 1.78 2.656 2.175.196.05.344.099.541.148 1.721.396 3.049-.395 3.541-2.472 1.278-5.29 2.557-10.63 3.787-15.92.491-2.077-.296-3.412-2.263-3.857z" fill="#024D61"/><path d="M72.541 32.682a839.357 839.357 0 01-.295-3.312l2.95-.297c6.935-.643 10.476-3.61 10.083-9.048-.394-5.488-4.574-8.11-11.804-7.417-2.213.198-4.475.445-6.688.643-2.607.247-3.885 1.83-3.59 4.4.59 5.29 1.18 10.532 1.721 15.822.246 2.176 1.525 3.165 3.541 2.967.344-.05.738-.099 1.082-.099 2.213-.247 3.197-1.533 3-3.659zm-1.475-14.437c.885-.1 1.77-.149 2.655-.248 2.46-.247 3.836.742 3.984 2.67.148 1.88-.984 3.066-3.295 3.264-.935.099-1.869.148-2.754.247-.197-1.928-.394-3.956-.59-5.933zM91.131 34.71c1.623-.1 3.148-1.039 3.934-3.56.197-.594.443-1.187.64-1.78 2.606-.149 5.213-.248 7.869-.347l.737 1.632c1.132 2.472 2.853 3.263 4.476 3.214 2.262-.05 4.279-1.681 3.983-2.324-2.852-6.378-5.852-12.707-8.901-19.036-.246-.494-.64-.89-1.476-1.186 1.328-.792 2.066-2.176 2.017-3.808-.099-2.867-2.361-4.647-5.754-4.499-3.394.148-5.607 2.225-5.41 4.994.098 1.632.885 2.868 2.164 3.56-.836.346-1.23.89-1.426 1.384-2.361 6.576-4.673 13.202-6.837 19.827-.295.643 1.87 2.077 3.984 1.928zm7.574-28.678c1.082-.05 1.869.643 1.918 1.632.049.94-.738 1.68-1.77 1.73-1.083.05-1.87-.642-1.919-1.532 0-1.039.689-1.78 1.77-1.83zm.344 11.372a380.6 380.6 0 012.902 6.527c-1.771.05-3.541.148-5.262.247.786-2.274 1.573-4.549 2.36-6.774zm35.262 8.9c.099-4.252-3.639-6.18-8.557-7.17-2.607-.543-4.574-.692-4.574-1.977 0-1.187 1.082-1.78 3.344-1.78 2.41 0 4.968 1.088 6.591 2.571.147.099 2.803-1.533 2.852-3.56 0-1.088-.59-2.126-1.967-2.917-1.574-.94-3.984-1.582-7.525-1.582-6.983 0-10.819 2.917-10.721 7.614.098 4.747 4.279 6.18 8.41 7.021 2.459.445 4.377.742 4.377 2.126 0 1.187-1.082 1.78-3.394 1.78-2.606 0-5.704-1.236-7.278-2.57-.295-.199-2.508 1.73-2.459 3.41 0 1.138.59 2.176 1.869 3.017 1.524.989 4.131 1.631 7.918 1.631 7.229 0 11.016-2.57 11.114-7.614zm19.918 8.208c2.754.148 4.968-1.88 4.771-2.324a691.507 691.507 0 00-6.885-9.74 417.297 417.297 0 017.77-8.307c.246-.396-1.623-2.769-4.377-2.967-1.426-.099-3 .445-4.426 2.176a287.805 287.805 0 00-6.344 7.219c.098-2.225.196-4.4.245-6.626.099-2.225-1.032-3.362-3.344-3.46-.344 0-.737-.05-1.082-.05-2.164-.05-3.393.989-3.442 3.213l-.443 16.762c-.049 2.175 1.033 3.313 3.148 3.411.344 0 .688 0 1.082.05 2.213.099 3.393-.989 3.442-3.164.099-2.225.197-4.4.246-6.626a781.225 781.225 0 015.656 7.812c1.131 1.88 2.557 2.571 3.983 2.62zm10.722.593c4.328.346 8.705.742 13.033 1.236 2.409.247 3.59-.544 3.836-2.472v-.198c.196-1.83-.836-2.67-3.246-2.917a615.648 615.648 0 00-9.443-.94l.295-3.411 6.197.593c2.508.248 3.639-.395 3.836-2.274v-.099c.197-1.73-.787-2.571-3.344-2.868-2.115-.197-4.181-.395-6.295-.593.098-.989.196-2.027.246-3.016 3.147.296 6.344.593 9.491.94 2.459.247 3.64-.396 3.886-2.325v-.197c.196-1.88-.836-2.868-3.295-3.165-4.476-.494-8.951-.89-13.476-1.236-2.606-.198-4.18 1.088-4.328 3.659-.344 5.043-.737 10.037-1.082 15.08-.098 2.62 1.181 4.005 3.689 4.203zM25.967 69.617c-.344-1.83-1.524-2.324-3.787-1.83-2.95.594-5.852 1.236-8.803 1.929-.246-1.088-.492-2.225-.738-3.313 1.918-.445 3.836-.84 5.803-1.286 2.312-.494 3.148-1.483 2.804-3.312v-.1c-.344-1.73-1.476-2.224-3.836-1.73-1.967.396-3.886.84-5.853 1.286-.196-.99-.442-1.978-.639-2.967l8.852-1.928c2.312-.495 3.197-1.434 2.804-3.362 0-.05 0-.1-.05-.198-.344-1.83-1.622-2.522-3.934-2.027-4.18.89-8.36 1.78-12.54 2.769-2.41.544-3.444 2.225-2.853 4.796 1.18 4.895 2.36 9.79 3.491 14.734.59 2.522 2.214 3.51 4.525 2.966a485.434 485.434 0 0112.148-2.67c2.262-.444 3.098-1.582 2.704-3.51-.098-.148-.098-.198-.098-.247zm14.853-11.57c1.77-3.263 3.59-6.527 5.41-9.74.147-.445-2.115-2.374-4.673-1.978-1.328.198-2.705 1.038-3.639 3.065a338.36 338.36 0 00-4.328 8.356l-1.18-6.526c-.394-2.176-1.672-3.066-3.836-2.67-.345.05-.689.148-1.033.198-2.017.395-2.902 1.68-2.508 3.856 1.082 5.488 2.114 10.977 3.197 16.465.393 2.126 1.672 3.065 3.639 2.67.344-.05.64-.099.983-.198 2.066-.395 2.902-1.681 2.509-3.807l-1.18-6.527a427.408 427.408 0 016.885 6.478c1.475 1.582 2.901 1.928 4.229 1.73 2.557-.395 4.18-2.868 3.885-3.263-2.655-2.72-5.508-5.44-8.36-8.109zm19.377-5.34c-2.509-.247-4.377-.099-4.574-1.434-.148-1.187.787-1.928 2.95-2.175 2.263-.297 4.82.494 6.542 1.73.147.1 2.41-1.879 2.213-3.856-.099-1.088-.836-2.028-2.263-2.67-1.573-.693-3.983-1.039-7.278-.643-6.59.84-9.836 4.203-9.099 8.85.689 4.697 4.82 5.637 8.804 5.934 2.36.148 4.18.197 4.377 1.582.147 1.186-.787 1.879-2.951 2.175-2.41.297-5.508-.544-7.18-1.68-.295-.15-2.115 1.977-1.87 3.707.148 1.138.837 2.126 2.165 2.72 1.573.79 4.082 1.137 7.623.692 6.836-.89 10.032-3.906 9.491-8.9-.491-4.203-4.23-5.636-8.95-6.032zm19.77-10.877c-2.115.197-4.23.346-6.344.593-2.46.247-3.689 1.78-3.443 4.35.541 5.291 1.082 10.532 1.623 15.823.246 2.175 1.427 3.164 3.344 2.966.345-.049.689-.049 1.033-.099 2.066-.197 3-1.483 2.853-3.609a820.744 820.744 0 01-.295-3.313c.934-.098 1.868-.148 2.754-.247 6.54-.544 9.885-3.46 9.54-8.95-.245-5.438-4.18-8.059-11.065-7.515zm.885 11.322c-.885.05-1.77.148-2.606.247-.197-1.977-.344-3.955-.541-5.933.836-.099 1.672-.148 2.508-.198 2.312-.197 3.64.791 3.787 2.72.098 1.83-.984 3.016-3.148 3.164zm29.312 4.45l-8.951.297-.147-3.412c1.967-.099 3.934-.148 5.901-.247 2.361-.1 3.345-.89 3.295-2.77v-.098c-.049-1.73-1.032-2.472-3.491-2.373-1.968.05-3.984.148-5.951.247l-.148-3.016c3-.148 6-.247 9-.297 2.312-.05 3.394-.84 3.344-2.818v-.198c-.049-1.879-1.131-2.769-3.491-2.72-4.279.1-8.509.297-12.787.495-2.46.148-3.787 1.582-3.59 4.203l.885 15.13c.147 2.57 1.524 3.807 3.885 3.708 4.131-.198 8.213-.346 12.344-.494 2.263-.05 3.295-.99 3.246-2.967v-.198c0-1.83-1.033-2.521-3.344-2.472zm15.737-17.552h-6.393c-2.262 0-3.885 1.433-3.836 4.004.049 5.044.148 10.087.197 15.13a3.925 3.925 0 004.032 3.857h5.656c7.525.05 12.443-4.302 12.689-11.372.344-6.972-4.377-11.57-12.345-11.62zm-.393 17.008h-2.41V46.131h2.558c3.393 0 5.557 1.978 5.508 5.439-.099 3.51-2.361 5.488-5.656 5.488zm20.361-16.662c-.344 0-.689-.05-1.033-.05-2.066-.099-3.197.989-3.295 3.165l-.59 16.76c-.099 2.176.934 3.363 2.901 3.413.345 0 .689.049.984.049 2.066.099 3.197-.989 3.295-3.164.295-5.588.541-11.175.836-16.762.099-2.175-.934-3.313-3.098-3.411zm23.754 2.768c-1.426-1.038-3.689-1.829-6.984-2.076-6.639-.495-10.426 2.126-10.672 6.823-.246 4.747 3.59 6.477 7.426 7.565 2.312.643 4.082 1.038 3.984 2.472-.098 1.187-1.131 1.681-3.344 1.533-2.459-.198-5.263-1.632-6.689-3.115-.246-.198-2.508 1.533-2.557 3.214-.049 1.137.393 2.225 1.524 3.115 1.378 1.087 3.738 1.928 7.328 2.225 6.836.543 10.574-1.78 11.066-6.824.393-4.202-2.951-6.427-7.525-7.762-2.41-.742-4.278-.99-4.18-2.324.098-1.187 1.18-1.681 3.295-1.533 2.262.198 4.623 1.434 6.049 3.016.148.1 2.754-1.335 2.951-3.362.098-.989-.393-2.077-1.672-2.967zm18.098.792c-.344-.05-.738-.1-1.082-.149-2.065-.247-3.246.692-3.492 2.917-.393 3.51-.836 7.07-1.229 10.581-.295 2.67-1.377 3.56-3.541 3.313-1.672-.198-3.049-1.137-3.984-2.522-.098-.148-2.459.693-2.705 3.313-.295 2.818 2.214 4.796 7.132 5.39 5.95.692 9.491-1.88 10.377-8.455.491-3.56.934-7.12 1.426-10.68.246-2.176-.787-3.412-2.902-3.709zm18.443 2.373c-7.328-1.187-13.328 3.065-14.262 10.037-.935 6.971 3.393 12.559 10.377 13.696 6.983 1.137 12.885-2.77 14.213-9.691 1.328-6.922-2.951-12.855-10.328-14.042zm3.197 12.756c-.59 3.362-2.951 5.192-6.049 4.697-3.05-.494-4.722-2.966-4.23-6.378.541-3.46 2.902-5.34 6.049-4.796 3.148.445 4.82 3.066 4.23 6.477zm31.229-5.587c-.197-.05-.443-.099-.639-.148-2.066-.495-3.443.395-3.935 2.472-.639 2.967-1.328 5.884-1.967 8.85A706.25 706.25 0 00228 52.361c-.738-1.335-1.23-1.978-2.951-2.324-.246-.05-.443-.099-.688-.148-1.869-.396-3.246.494-3.64 2.67-1.033 5.488-2.115 10.976-3.147 16.465-.394 2.126.393 3.46 2.311 3.856.197.05.443.099.64.148 2.016.396 3.295-.494 3.737-2.62.64-2.967 1.23-5.933 1.869-8.9 2.066 4.153 4.131 8.257 6.049 12.41.64 1.335 1.082 1.83 2.754 2.225.197.05.394.1.541.149 1.771.395 3.099-.396 3.64-2.522 1.278-5.439 2.606-10.877 3.885-16.316.443-2.126-.394-3.461-2.41-3.956z" fill="#00AAD6"/></g><defs><clipPath id="clip0"><path fill="#fff" d="M0 0h246v80H0z"/></clipPath></defs></svg>