<svg width="246" height="80" viewBox="0 0 246 80" fill="none" xmlns="http://www.w3.org/2000/svg">
<g clip-path="url(#clip0)">
<path d="M233.607 80C233.115 80 232.623 79.9506 232.082 79.8022L231.541 79.6539C229.229 79.11 228.295 78.1211 227.656 77.2312L225.984 74.8084L223.229 75.7478C222.984 75.8467 222.688 75.8962 222.393 75.9456L221.902 76.0445L221.459 76.2423C220.721 76.5884 219.934 76.7367 219.049 76.7367C218.607 76.7367 218.115 76.6873 217.623 76.5884L217.033 76.4895C215.41 76.1434 214.131 75.3523 213.295 74.2151L211.475 71.644L208.574 72.8307C206.803 73.5723 204.836 73.9184 202.77 73.9184C201.836 73.9184 200.902 73.8195 199.967 73.6712C196.426 73.0779 193.328 71.4957 191.066 69.1224L188.951 66.8974L186.295 68.3807L185.902 68.5785L185.705 68.7268C183.934 69.9629 181.721 70.6057 179.164 70.6057C178.525 70.6057 177.787 70.5562 177.098 70.4574C174.295 70.1607 172.033 69.3696 170.361 68.1829L168.59 66.8974L166.574 67.738C164.852 68.4302 162.787 68.8257 160.475 68.8257C159.836 68.8257 159.147 68.7763 158.508 68.7268C155.508 68.4796 153.049 67.8863 151.18 66.848L149.311 65.8591L147.443 66.848C146.557 67.293 145.574 67.5402 144.492 67.5402C144.393 67.5402 144.246 67.5402 144.147 67.5402L143.164 67.4907C141.393 67.3918 139.967 66.7985 138.934 65.6613L136.82 63.288L134.066 64.8208C131.656 66.1558 128.803 66.848 125.607 66.848H125.459C124.574 66.848 123.688 66.848 122.803 66.848C121.869 66.848 120.885 66.848 119.951 66.848H119.902C118.918 66.848 117.934 66.6502 117.049 66.2546L115.377 65.513L113.754 66.3041C112.869 66.7491 111.787 66.9963 110.607 66.9963C106.623 67.0952 102.59 67.2435 98.6065 67.4413C98.459 67.4413 98.3114 67.4413 98.1639 67.4413C95.8032 67.4413 93.8852 66.4524 92.7541 64.623L92.6557 64.4252L92.5082 64.2274C92.2623 63.9308 92.0655 63.6341 91.918 63.288L90.3934 60.3214L87.2459 61.3597C86.8032 61.508 86.3114 61.6564 85.8196 61.7553L83.4098 62.2991L82.8688 64.7219C82.2786 67.2435 80.3114 68.9246 77.5573 69.1718L76.5737 69.2707C76.3278 69.2707 76.0819 69.3202 75.836 69.3202C74.8032 69.3202 73.8196 69.0729 72.9836 68.6279L70.918 67.4907L68.9508 68.7763C67.0327 70.0618 64.4754 70.9024 61.4262 71.2979C60.2459 71.4462 59.1639 71.5451 58.1311 71.5451C56.6557 71.5451 55.3278 71.3968 54.1475 71.0507L52.377 70.6057L50.9016 71.644C49.8688 72.3362 48.7868 72.8307 47.6065 72.979C47.2131 73.0284 46.8688 73.0779 46.4754 73.0779C45.4426 73.0779 44.459 72.8307 43.5246 72.3857L40.918 71.1496L38.9508 73.2262C38.1147 74.1162 36.8852 74.759 35.459 75.0062L34.5245 75.204C34.0819 75.3028 33.6393 75.3523 33.1967 75.3523C32.7049 75.3523 32.2623 75.3028 31.7705 75.204L30.1475 74.8084L28.7704 75.6984C28.0327 76.1928 27.1475 76.4895 26.1147 76.7367C22.1803 77.5278 18.2459 78.4178 14.3114 79.3078C13.6721 79.4561 13.0819 79.5056 12.4918 79.5056C11.6557 79.5056 10.8688 79.3572 10.1803 79.0606L9.68848 78.8628L9.1475 78.8134C6.3934 78.5167 4.37701 76.5884 3.6393 73.4734L0.147498 58.7392C-0.344305 56.6625 -0.147584 54.8826 0.786842 53.3498C1.72127 51.8665 3.19668 50.8776 5.16389 50.3832C9.34422 49.3943 13.5737 48.4549 17.8032 47.6143C18.4918 47.466 19.1311 47.4166 19.7213 47.4166C20.1639 47.4166 20.5573 47.466 21 47.5649L22.7213 47.911L24.1475 46.8232C24.9344 46.2299 25.8688 45.8344 26.9508 45.6366L27.9836 45.4388C28.4754 45.3399 28.9672 45.2905 29.459 45.2905C30.4918 45.2905 31.4754 45.5377 32.3114 45.9827L34.918 47.4166L36.9836 45.2905C38.1147 44.1533 39.4918 43.4611 41.0164 43.1644C41.4098 43.115 41.8032 43.0655 42.1967 43.0655C43.3278 43.0655 44.459 43.3127 45.4918 43.7577L47.5573 44.6972L49.377 43.3127C51.3934 41.8294 54 40.89 57.1967 40.445C57.6885 40.3956 58.1803 40.3461 58.6721 40.2967L63.6885 39.9506L62.1147 35.1051C61.918 34.5612 61.8196 34.0667 61.7705 33.5229L60.0491 17.7009C59.8032 15.6242 60.2459 13.8937 61.377 12.5093C62.5082 11.0754 64.1803 10.2843 66.295 10.0371C68.5082 9.78986 70.7705 9.59209 73.0327 9.39432C73.8688 9.34487 74.6557 9.29543 75.3934 9.29543C78.8852 9.29543 81.7377 10.0865 83.8524 11.6193L90.7377 16.5637L90.0491 8.05933C90.0491 7.96045 90.0491 7.911 90.0491 7.81211V7.86156C89.9508 5.83436 90.5901 3.9555 91.918 2.47219C93.4426 0.791101 95.7049 -0.197774 98.3114 -0.296661C98.5082 -0.296661 98.6557 -0.296661 98.8032 -0.296661C103.377 -0.296661 106.721 2.47219 107.115 6.57602L107.164 6.97157L107.262 7.36712C107.311 7.51545 107.361 7.66378 107.361 7.81211L108.885 14.1409L113.803 9.83931C116.213 7.76267 119.803 6.62546 124.229 6.62546H124.279C127.721 6.62546 130.574 7.21879 132.738 8.30655L134.705 9.34487L136.574 8.15822C137.557 7.51545 138.738 7.21879 140.115 7.21879C140.213 7.21879 140.311 7.21879 140.41 7.21879L141.541 7.26823C143.311 7.31768 144.787 7.86156 145.869 8.85043L148.131 10.9271L150.688 9.24598C152.016 8.356 153.443 7.911 154.967 7.911C155.115 7.911 155.262 7.911 155.459 7.911C156.836 8.00989 158.164 8.40544 159.393 9.19654L161.164 10.2843L163.033 9.44376C163.918 9.04821 164.951 8.85043 166.033 8.85043C166.279 8.85043 166.525 8.85043 166.82 8.89988C171.295 9.24598 175.869 9.69098 180.344 10.1854C182.557 10.4326 184.18 11.1743 185.213 12.4598C186.098 13.597 186.492 14.9815 186.295 16.6131V16.8109C186.147 18.1953 185.656 19.3325 184.869 20.1731L184.475 20.5686L184.229 21.063C183.984 21.508 183.738 21.9036 183.393 22.2002L182.41 23.1891L182.262 24.6724V24.7219C182.213 25.0185 182.164 25.3152 182.115 25.5624L181.623 27.6885L183.197 29.2213C183.344 29.3696 183.443 29.5179 183.59 29.6663C184.475 30.754 184.82 32.089 184.623 33.6712V33.869C184.574 34.3634 184.426 34.9073 184.279 35.4017L182.656 40L187.967 40.6922C189.836 40.9394 191.262 41.6811 192.246 42.9666L194.164 45.5871L197.066 44.2522C199.082 43.3127 201.295 42.8677 203.607 42.8677C204.541 42.8677 205.525 42.9666 206.508 43.115C209.902 43.6588 212.902 45.0927 215.164 47.2682L217.475 49.4932L220.082 47.6638C221.016 47.021 222.098 46.6749 223.328 46.6749C223.77 46.6749 224.262 46.7243 224.705 46.8232L225.393 46.9716C227.803 47.466 228.934 48.4549 229.82 49.8393L231.443 52.3115L234.246 51.471C234.295 51.471 234.344 51.4215 234.393 51.4215L235.082 51.2237L235.623 50.8776C236.508 50.2843 237.541 49.9876 238.672 49.9876C239.213 49.9876 239.803 50.0371 240.393 50.1854L241.033 50.3337C242.803 50.7293 244.131 51.6193 244.967 53.0037C245.803 54.3881 246 56.0198 245.557 57.8986L241.672 74.2151C240.984 77.0828 239.066 78.9122 236.557 79.11L235.967 79.1595L235.426 79.3572C235.033 79.8517 234.344 80 233.607 80Z" fill="#74634D"/>
<path d="M73.7214 34.3634C73.6231 33.2756 73.5247 32.2373 73.4264 31.1496C74.3608 31.0507 75.3444 30.9518 76.2788 30.9023C83.0657 30.309 86.5083 27.3918 86.1149 22.0519C85.7706 16.6625 81.6887 14.1409 74.6067 14.7837C72.4428 14.9815 70.2296 15.1792 68.0657 15.4265C65.5083 15.6737 64.2788 17.2559 64.5247 19.7281C65.1149 24.8702 65.6559 30.0124 66.246 35.1545C66.4919 37.2806 67.7214 38.22 69.7378 38.0222C70.0821 37.9728 70.4264 37.9234 70.8198 37.9234C72.9346 37.6761 73.9182 36.3906 73.7214 34.3634ZM72.2952 20.2225C73.1805 20.1236 74.0165 20.0742 74.9018 19.9753C77.3116 19.7775 78.6395 20.7169 78.787 22.5958C78.9346 24.4252 77.8034 25.5624 75.5411 25.7602C74.6559 25.8591 73.7214 25.9085 72.8362 26.0074C72.6395 24.1286 72.4428 22.2002 72.2952 20.2225Z" fill="#024D61"/>
<path d="M91.8688 36.2917C93.4426 36.1928 94.9671 35.2534 95.7049 32.8307C95.9016 32.2373 96.0983 31.6935 96.3442 31.1001C98.9016 30.9518 101.459 30.8529 104.016 30.754C104.262 31.2979 104.508 31.8418 104.754 32.3857C105.885 34.8084 107.508 35.5501 109.131 35.5006C111.344 35.4512 113.311 33.8195 113.016 33.2262C110.164 26.9963 107.262 20.8158 104.262 14.6354C104.016 14.1409 103.623 13.7454 102.836 13.4487C104.115 12.6576 104.852 11.3226 104.803 9.74042C104.705 6.97157 102.492 5.19159 99.1967 5.33993C95.8524 5.48826 93.7376 7.46601 93.8852 10.2349C93.9835 11.8171 94.7704 13.0532 95.9999 13.6959C95.1639 14.042 94.8196 14.5365 94.6229 15.0803C92.3114 21.508 90.0491 27.9852 87.9344 34.4623C87.6885 35.0556 89.8032 36.4401 91.8688 36.2917ZM99.295 8.30655C100.328 8.25711 101.115 8.94932 101.164 9.88875C101.213 10.7787 100.475 11.5204 99.4426 11.5698C98.4098 11.6193 97.6229 10.9765 97.5737 10.0371C97.5245 9.09765 98.213 8.35599 99.295 8.30655ZM99.5901 19.382C100.525 21.508 101.508 23.6341 102.443 25.7602C100.721 25.8096 98.9999 25.9085 97.2786 26.0074C98.0655 23.7824 98.8524 21.6069 99.5901 19.382Z" fill="#024D61"/>
<path d="M134.066 28.084C134.164 23.9308 130.525 22.0519 125.705 21.063C123.148 20.5192 121.23 20.4203 121.23 19.1347C121.23 17.9975 122.312 17.4042 124.525 17.4042C126.836 17.4042 129.394 18.492 130.967 19.8764C131.115 19.9753 133.672 18.3436 133.721 16.4153C133.721 15.3276 133.131 14.3387 131.754 13.5476C130.23 12.6576 127.82 12.0148 124.426 12.0148C117.59 12.0148 113.853 14.8331 113.951 19.4808C114.049 24.1286 118.131 25.513 122.164 26.3041C124.574 26.7491 126.443 26.9963 126.443 28.3807C126.443 29.5179 125.41 30.1112 123.098 30.1112C120.541 30.1112 117.541 28.8752 115.967 27.5896C115.721 27.4413 113.508 29.2707 113.557 30.9518C113.557 32.089 114.098 33.0779 115.377 33.869C116.853 34.8084 119.41 35.5006 123.098 35.5006C130.279 35.5501 133.918 33.0284 134.066 28.084Z" fill="#024D61"/>
<path d="M153.492 36.1434C156.197 36.2917 158.361 34.314 158.115 33.869C155.902 30.7046 153.688 27.4907 151.377 24.3758C153.885 21.6564 156.393 18.937 158.951 16.2175C159.197 15.822 157.377 13.4981 154.721 13.3498C153.344 13.2509 151.82 13.7948 150.393 15.4759C148.279 17.7997 146.213 20.173 144.197 22.5463C144.295 20.3708 144.393 18.2447 144.443 16.0692C144.541 13.8937 143.41 12.8059 141.197 12.707C140.852 12.707 140.459 12.707 140.115 12.6576C138 12.6082 136.82 13.6465 136.77 15.7726C136.623 21.2114 136.475 26.6996 136.328 32.1384C136.279 34.2645 137.361 35.4017 139.377 35.4512C139.721 35.4512 140.065 35.4512 140.41 35.5006C142.574 35.5995 143.705 34.5117 143.803 32.3857C143.902 30.2101 144 28.0841 144.049 25.9085C145.918 28.4302 147.738 31.0012 149.557 33.5229C150.738 35.4017 152.065 36.0445 153.492 36.1434Z" fill="#024D61"/>
<path d="M163.967 36.6873C168.197 37.0334 172.476 37.4289 176.705 37.8739C179.066 38.1211 180.246 37.33 180.443 35.4512C180.443 35.4017 180.443 35.3523 180.443 35.3028C180.64 33.5229 179.656 32.6823 177.246 32.4351C174.148 32.089 171.099 31.7923 168 31.5451C168.099 30.4573 168.197 29.3201 168.295 28.2324C170.312 28.4302 172.328 28.5785 174.344 28.8257C176.754 29.0729 177.885 28.4302 178.082 26.6007C178.082 26.5513 178.082 26.5513 178.082 26.5018C178.279 24.8208 177.295 23.9802 174.836 23.733C172.771 23.5352 170.754 23.3374 168.689 23.1397C168.787 22.1508 168.836 21.1619 168.935 20.173C172.033 20.4697 175.131 20.7664 178.23 21.063C180.64 21.3103 181.82 20.6675 182.017 18.7886C182.017 18.7392 182.017 18.6897 182.017 18.6403C182.213 16.8109 181.23 15.822 178.771 15.5748C174.394 15.1298 170.017 14.6848 165.639 14.3387C163.082 14.1409 161.558 15.377 161.41 17.8986C161.066 22.7936 160.672 27.7379 160.328 32.6329C160.279 35.1051 161.558 36.4895 163.967 36.6873Z" fill="#024D61"/>
<path d="M28.2295 70.4079C27.8852 68.6279 26.7541 68.1335 24.4918 68.6279C21.6393 69.2213 18.7377 69.864 15.8852 70.5068C15.6393 69.419 15.3934 68.3313 15.1475 67.2435C17.0164 66.7985 18.9344 66.403 20.8033 66.0074C23.0656 65.513 23.9016 64.5735 23.5082 62.7936C23.5082 62.7441 23.5082 62.7441 23.5082 62.6947C23.1639 61.0136 22.082 60.5192 19.7213 61.0136C17.8033 61.4091 15.9344 61.8541 14.0164 62.2497C13.8197 61.3103 13.5738 60.3214 13.3771 59.3819C16.2787 58.7392 19.1311 58.0964 22.0328 57.5031C24.2459 57.0581 25.1311 56.0692 24.7869 54.1904C24.7869 54.1409 24.7869 54.0915 24.7377 54.042C24.3934 52.2126 23.1639 51.5698 20.9016 52.0643C16.8197 52.9048 12.7377 53.7948 8.65574 54.7837C6.29508 55.3276 5.2623 56.9592 5.90164 59.4314C7.03279 64.2274 8.21312 69.0235 9.34426 73.8195C9.93443 76.2917 11.5082 77.2311 13.7705 76.6873C17.7049 75.7478 21.6885 74.9073 25.623 74.0667C27.8361 73.6218 28.623 72.534 28.2787 70.6551C28.2295 70.5068 28.2295 70.4573 28.2295 70.4079Z" fill="#024D61"/>
<path d="M42.7375 59.1347C44.4589 55.9703 46.2293 52.7565 48.049 49.5921C48.1966 49.1471 45.9834 47.2682 43.5244 47.6638C42.2457 47.8616 40.9179 48.7021 39.9834 50.6304C38.5572 53.3498 37.131 56.0692 35.7539 58.8381C35.3605 56.712 35.0162 54.5859 34.6228 52.4598C34.2293 50.3337 32.9998 49.4438 30.8851 49.8393C30.5408 49.8888 30.1966 49.9876 29.8523 50.0371C27.8851 50.4326 26.9998 51.6687 27.3933 53.7948C28.4261 59.1347 29.4589 64.5241 30.4916 69.864C30.8851 71.9407 32.1146 72.8307 34.0326 72.4846C34.3769 72.4351 34.672 72.3857 35.0162 72.2868C37.0326 71.8912 37.8687 70.6551 37.4752 68.5291C37.0818 66.403 36.7375 64.2769 36.3441 62.1508C38.6064 64.2274 40.8687 66.3535 43.0818 68.4796C44.508 70.0124 45.9343 70.3585 47.213 70.1607C49.7211 69.7651 51.2949 67.3424 50.9998 66.9468C48.2949 64.3758 45.5408 61.7553 42.7375 59.1347Z" fill="#024D61"/>
<path d="M61.6231 53.8937C59.1641 53.6959 57.3444 53.7948 57.1477 52.5093C57.0001 51.3721 57.9346 50.6304 60.0001 50.3832C62.2133 50.0865 64.6723 50.8776 66.3936 52.0643C66.5411 52.1632 68.7542 50.2348 68.5575 48.3065C68.4592 47.2188 67.7706 46.3288 66.3936 45.7355C64.869 45.0433 62.5083 44.6971 59.3116 45.1421C52.869 45.9827 49.7215 49.246 50.41 53.7948C51.0985 58.3931 55.1313 59.2831 59.0165 59.5797C61.328 59.728 63.0985 59.7775 63.2952 61.1125C63.4428 62.2497 62.5083 62.9419 60.3936 63.2386C58.0329 63.5352 55.0329 62.6947 53.41 61.6069C53.1149 61.4586 51.3444 63.5847 51.5903 65.2163C51.7378 66.3041 52.3772 67.2929 53.7051 67.8863C55.2296 68.6279 57.6887 68.974 61.1805 68.529C67.869 67.6885 70.9674 64.7219 70.4756 59.8269C69.9346 55.6737 66.2952 54.2398 61.6231 53.8937Z" fill="#024D61"/>
<path d="M80.9508 43.2633C78.8853 43.4116 76.8197 43.6094 74.7541 43.8072C72.3443 44.0544 71.164 45.5871 71.4099 48.0593C71.9508 53.2015 72.4918 58.3436 72.9836 63.5352C73.1803 65.6613 74.4099 66.6502 76.2787 66.4524C76.623 66.403 76.9672 66.403 77.2623 66.3535C79.2787 66.1558 80.2131 64.8702 80.0164 62.843C79.9181 61.7553 79.8197 60.7169 79.7213 59.6292C80.6066 59.5303 81.541 59.4808 82.4263 59.382C88.8197 58.8381 92.0656 56.0198 91.7705 50.6304C91.5246 45.2905 87.6885 42.7194 80.9508 43.2633ZM81.8361 54.3387C81 54.3881 80.1148 54.487 79.2787 54.5365C79.1312 52.6082 78.9344 50.6799 78.7869 48.7021C79.623 48.6527 80.4099 48.5538 81.2459 48.5043C83.5082 48.3066 84.7869 49.246 84.9344 51.1743C85.0328 53.0532 83.9508 54.1409 81.8361 54.3387Z" fill="#024D61"/>
<path d="M110.459 58.6897C107.557 58.7886 104.606 58.8875 101.705 58.9864C101.656 57.8986 101.606 56.7614 101.557 55.6737C103.475 55.5748 105.393 55.5253 107.311 55.4759C109.623 55.4264 110.606 54.6353 110.557 52.7565C110.557 52.707 110.557 52.707 110.557 52.6576C110.508 50.9765 109.524 50.2349 107.164 50.3337C105.246 50.3832 103.279 50.4821 101.361 50.5315C101.311 49.5426 101.262 48.5538 101.213 47.5649C104.164 47.4166 107.065 47.3177 110.016 47.2682C112.279 47.2188 113.311 46.4277 113.262 44.4994C113.262 44.4499 113.262 44.4005 113.262 44.3016C113.213 42.4722 112.131 41.6316 109.869 41.6811C105.688 41.78 101.557 41.9283 97.3769 42.1755C94.9671 42.2744 93.6884 43.7577 93.836 46.2794C94.131 51.1743 94.4261 56.1187 94.672 61.0136C94.8196 63.5352 96.1966 64.7713 98.4589 64.623C102.492 64.4252 106.475 64.2769 110.508 64.178C112.721 64.1285 113.754 63.1891 113.705 61.3103C113.705 61.2608 113.705 61.2114 113.705 61.1125C113.754 59.3325 112.721 58.6403 110.459 58.6897Z" fill="#024D61"/>
<path d="M125.852 41.5328C123.787 41.5328 121.672 41.5328 119.606 41.5328C117.393 41.5328 115.82 42.9172 115.869 45.4883C115.918 50.4326 116.016 55.3276 116.066 60.2719C116.115 62.398 117.836 64.0791 120 64.0791C121.869 64.0791 123.688 64.0791 125.557 64.0791C132.934 64.1286 137.705 59.8764 137.951 52.9543C138.197 46.0321 133.623 41.5822 125.852 41.5328ZM125.41 58.0964C124.623 58.0964 123.836 58.0964 123.049 58.0964C123.049 54.5365 123.049 50.9765 123.049 47.4166C123.885 47.4166 124.721 47.4166 125.557 47.4166C128.902 47.4166 130.967 49.3449 130.918 52.707C130.869 56.1681 128.656 58.1459 125.41 58.0964Z" fill="#024D61"/>
<path d="M145.328 41.8294C144.984 41.8294 144.639 41.78 144.295 41.78C142.279 41.6811 141.147 42.7194 141.098 44.8949C140.902 50.3337 140.705 55.822 140.508 61.2608C140.41 63.3869 141.443 64.5241 143.361 64.623C143.705 64.623 144 64.6724 144.344 64.6724C146.361 64.7713 147.443 63.6836 147.59 61.6069C147.885 56.1681 148.131 50.6798 148.426 45.241C148.475 43.0655 147.443 41.9283 145.328 41.8294Z" fill="#024D61"/>
<path d="M168.541 44.5488C167.164 43.5599 164.951 42.7688 161.705 42.5216C155.262 42.0272 151.525 44.5983 151.279 49.1965C151.033 53.8442 154.77 55.5253 158.557 56.6131C160.77 57.2064 162.541 57.602 162.443 58.9864C162.344 60.1236 161.311 60.618 159.197 60.4697C156.787 60.2719 154.033 58.8381 152.656 57.4536C152.41 57.2559 150.246 58.9369 150.147 60.618C150.098 61.7058 150.541 62.7936 151.672 63.6835C153 64.7219 155.311 65.5624 158.852 65.8591C165.541 66.3535 169.18 64.0791 169.672 59.2336C170.066 55.1298 166.77 52.9543 162.295 51.6687C159.934 50.9765 158.115 50.6798 158.213 49.3943C158.311 48.2571 159.344 47.7132 161.459 47.911C163.672 48.0593 165.934 49.3449 167.361 50.8282C167.508 50.9271 170.066 49.4932 170.213 47.5649C170.262 46.4771 169.77 45.4388 168.541 44.5488Z" fill="#024D61"/>
<path d="M186.197 45.3399C185.852 45.2905 185.508 45.241 185.164 45.1916C183.148 44.9444 181.967 45.8838 181.721 48.0099C181.328 51.471 180.934 54.8826 180.492 58.3436C180.197 60.9642 179.164 61.8047 177 61.6069C175.328 61.4091 174.049 60.5192 173.115 59.1347C173.016 58.9864 170.705 59.7775 170.459 62.3486C170.213 65.1174 172.574 67.0457 177.443 67.5896C183.246 68.2818 186.738 65.7602 187.574 59.3325C188.016 55.8714 188.508 52.4104 188.951 48.8999C189.295 46.8232 188.312 45.5871 186.197 45.3399Z" fill="#024D61"/>
<path d="M204.246 47.6638C197.115 46.4771 191.262 50.6798 190.328 57.4536C189.443 64.2274 193.623 69.7157 200.459 70.8529C207.246 71.9901 213.049 68.1335 214.328 61.3597C215.656 54.5859 211.475 48.8504 204.246 47.6638ZM207.344 60.0742C206.754 63.3869 204.443 65.1174 201.443 64.6724C198.492 64.178 196.82 61.7552 197.312 58.4425C197.803 55.0309 200.164 53.2509 203.213 53.7454C206.262 54.2398 207.934 56.7614 207.344 60.0742Z" fill="#024D61"/>
<path d="M237.885 54.6848C237.689 54.6353 237.443 54.5859 237.246 54.5365C235.23 54.042 233.902 54.8826 233.41 56.9592C232.77 59.8269 232.131 62.7441 231.492 65.6119C229.574 61.6069 227.607 57.602 225.541 53.597C224.803 52.262 224.361 51.6687 222.639 51.3226C222.393 51.2732 222.197 51.2237 221.951 51.1743C220.131 50.8282 218.803 51.6687 218.41 53.7454C217.377 59.0853 216.344 64.4747 215.311 69.8146C214.918 71.8912 215.705 73.1768 217.574 73.5723C217.77 73.6218 217.967 73.6712 218.213 73.7206C220.18 74.1162 221.41 73.2262 221.852 71.1496C222.443 68.2324 223.033 65.3152 223.672 62.4475C225.689 66.5019 227.705 70.5562 229.623 74.6106C230.262 75.8962 230.656 76.3906 232.279 76.7862C232.475 76.8356 232.623 76.885 232.82 76.9345C234.541 77.33 235.869 76.5389 236.361 74.4623C237.639 69.1718 238.918 63.8319 240.148 58.5414C240.639 56.4648 239.852 55.1298 237.885 54.6848Z" fill="#024D61"/>
<path d="M72.541 32.6823C72.4426 31.5946 72.3443 30.5068 72.2459 29.3696C73.2295 29.2707 74.2131 29.1718 75.1967 29.0729C82.1311 28.4302 85.6721 25.4635 85.2787 20.0247C84.8852 14.5365 80.7049 11.9159 73.4754 12.6082C71.2623 12.8059 69 13.0531 66.7869 13.2509C64.1803 13.4981 62.9016 15.0803 63.1967 17.6514C63.7869 22.9419 64.3771 28.1829 64.918 33.4734C65.1639 35.6489 66.4426 36.6378 68.459 36.44C68.8033 36.3906 69.1967 36.3412 69.541 36.3412C71.7541 36.0939 72.7377 34.8084 72.541 32.6823ZM71.0656 18.2447C71.9508 18.1459 72.8361 18.0964 73.7213 17.9975C76.1803 17.7503 77.5574 18.7392 77.7049 20.6675C77.8525 22.5463 76.7213 23.733 74.4098 23.9308C73.4754 24.0297 72.541 24.0791 71.6557 24.178C71.459 22.2497 71.2623 20.2225 71.0656 18.2447Z" fill="#00AAD6"/>
<path d="M91.1311 34.7095C92.754 34.6106 94.2786 33.6712 95.0655 31.1496C95.2622 30.5562 95.5081 29.9629 95.7049 29.3696C98.3114 29.2213 100.918 29.1224 103.574 29.0235C103.82 29.5674 104.066 30.1112 104.311 30.6551C105.443 33.1273 107.164 33.9184 108.787 33.869C111.049 33.8195 113.066 32.1879 112.77 31.5451C109.918 25.1669 106.918 18.8381 103.869 12.5093C103.623 12.0148 103.229 11.6193 102.393 11.3226C103.721 10.5315 104.459 9.14709 104.41 7.51545C104.311 4.64771 102.049 2.86774 98.6557 3.01607C95.2622 3.1644 93.0491 5.24104 93.2459 8.00989C93.3442 9.64153 94.1311 10.8776 95.4098 11.5698C94.5737 11.9159 94.1803 12.4598 93.9836 12.9543C91.6229 19.5303 89.3114 26.1557 87.1475 32.7812C86.8524 33.424 89.0163 34.8578 91.1311 34.7095ZM98.7049 6.03214C99.7868 5.98269 100.574 6.67491 100.623 7.66378C100.672 8.60321 99.8852 9.34487 98.8524 9.39431C97.7704 9.44376 96.9836 8.75154 96.9344 7.86156C96.9344 6.82324 97.6229 6.08158 98.7049 6.03214ZM99.0491 17.4042C100.033 19.5797 101.016 21.7553 101.951 23.9308C100.18 23.9802 98.4098 24.0791 96.6885 24.178C97.4754 21.9036 98.2622 19.6292 99.0491 17.4042Z" fill="#00AAD6"/>
<path d="M134.311 26.3041C134.41 22.0519 130.672 20.1236 125.754 19.1347C123.147 18.5908 121.18 18.4425 121.18 17.157C121.18 15.9703 122.262 15.377 124.524 15.377C126.934 15.377 129.492 16.4648 131.115 17.9481C131.262 18.047 133.918 16.4153 133.967 14.3881C133.967 13.3004 133.377 12.262 132 11.4709C130.426 10.5315 128.016 9.88875 124.475 9.88875C117.492 9.88875 113.656 12.8059 113.754 17.5031C113.852 22.2497 118.033 23.6836 122.164 24.5241C124.623 24.9691 126.541 25.2658 126.541 26.6502C126.541 27.8368 125.459 28.4302 123.147 28.4302C120.541 28.4302 117.443 27.1941 115.869 25.8591C115.574 25.6613 113.361 27.5896 113.41 29.2707C113.41 30.4079 114 31.4462 115.279 32.2868C116.803 33.2756 119.41 33.9184 123.197 33.9184C130.426 33.9184 134.213 31.3473 134.311 26.3041Z" fill="#00AAD6"/>
<path d="M154.229 34.5117C156.983 34.6601 159.197 32.6329 159 32.1879C156.738 28.9246 154.426 25.6613 152.115 22.4475C154.672 19.6292 157.279 16.8603 159.885 14.1409C160.131 13.7454 158.262 11.3721 155.508 11.1743C154.082 11.0754 152.508 11.6193 151.082 13.3498C148.918 15.7231 146.803 18.1459 144.738 20.5686C144.836 18.3436 144.934 16.1681 144.983 13.9431C145.082 11.7182 143.951 10.581 141.639 10.4821C141.295 10.4821 140.902 10.4326 140.557 10.4326C138.393 10.3832 137.164 11.4215 137.115 13.6465C136.967 19.2336 136.82 24.8208 136.672 30.4079C136.623 32.5834 137.705 33.7206 139.82 33.8195C140.164 33.8195 140.508 33.8195 140.902 33.869C143.115 33.9679 144.295 32.8801 144.344 30.7046C144.443 28.4796 144.541 26.3041 144.59 24.0791C146.508 26.6996 148.377 29.2707 150.246 31.8912C151.377 33.7701 152.803 34.4623 154.229 34.5117Z" fill="#00AAD6"/>
<path d="M164.951 35.1051C169.279 35.4512 173.656 35.8467 177.984 36.3412C180.393 36.5884 181.574 35.7973 181.82 33.869C181.82 33.8195 181.82 33.7701 181.82 33.6712C182.016 31.8418 180.984 31.0012 178.574 30.754C175.426 30.4079 172.279 30.1113 169.131 29.8146C169.23 28.6774 169.328 27.5402 169.426 26.403C171.492 26.6007 173.557 26.7985 175.623 26.9963C178.131 27.2435 179.262 26.6007 179.459 24.7219C179.459 24.6724 179.459 24.6724 179.459 24.623C179.656 22.8925 178.672 22.0519 176.115 21.7553C174 21.5575 171.934 21.3597 169.82 21.1619C169.918 20.1731 170.016 19.1347 170.066 18.1459C173.213 18.4425 176.41 18.7392 179.557 19.0853C182.016 19.3325 183.197 18.6897 183.443 16.7614C183.443 16.712 183.443 16.6625 183.443 16.5637C183.639 14.6848 182.607 13.6959 180.148 13.3993C175.672 12.9048 171.197 12.5093 166.672 12.1632C164.066 11.9654 162.492 13.2509 162.344 15.822C162 20.8653 161.607 25.8591 161.262 30.9024C161.164 33.5229 162.443 34.9073 164.951 35.1051Z" fill="#00AAD6"/>
<path d="M25.9671 69.6168C25.6229 67.7874 24.4425 67.293 22.1802 67.7874C19.2294 68.3807 16.3278 69.0235 13.377 69.7157C13.1311 68.6279 12.8852 67.4907 12.6393 66.403C14.5573 65.958 16.4753 65.5624 18.4425 65.1174C20.754 64.623 21.5901 63.6341 21.2458 61.8047C21.2458 61.7553 21.2458 61.7553 21.2458 61.7058C20.9016 59.9753 19.7704 59.4808 17.4098 59.9753C15.4425 60.3708 13.5245 60.8158 11.5573 61.2608C11.3606 60.2719 11.1147 59.2831 10.918 58.2942C13.8688 57.6514 16.8196 57.0087 19.7704 56.3659C22.0819 55.8714 22.9671 54.932 22.5737 53.0037C22.5737 52.9543 22.5737 52.9048 22.5245 52.8059C22.1802 50.9765 20.9016 50.2843 18.5901 50.7787C14.4098 51.6687 10.2294 52.5587 6.0491 53.5476C3.63927 54.0915 2.60648 55.7726 3.19664 58.3436C4.37697 63.2386 5.5573 68.1335 6.68845 73.0779C7.27861 75.5995 8.90156 76.5884 11.213 76.0445C15.2458 75.1051 19.2786 74.2151 23.3606 73.3745C25.6229 72.9295 26.4589 71.7923 26.0655 69.864C25.9671 69.7157 25.9671 69.6663 25.9671 69.6168Z" fill="#00AAD6"/>
<path d="M40.8196 58.047C42.5901 54.7837 44.4098 51.5204 46.2295 48.3066C46.377 47.8616 44.1147 45.9333 41.5573 46.3288C40.2295 46.5266 38.8524 47.3671 37.918 49.3943C36.4426 52.1632 34.9672 54.9815 33.5901 57.7503C33.1967 55.5748 32.8032 53.3993 32.4098 51.2237C32.0164 49.0482 30.7377 48.1582 28.5737 48.5538C28.2295 48.6032 27.8852 48.7021 27.5409 48.7516C25.5245 49.1471 24.6393 50.4326 25.0327 52.6082C26.1147 58.0964 27.1475 63.5847 28.2295 69.0729C28.6229 71.199 29.9016 72.1384 31.8688 71.7429C32.2131 71.6934 32.5082 71.644 32.8524 71.5451C34.918 71.1496 35.7541 69.864 35.3606 67.7379C34.9672 65.5624 34.5737 63.3869 34.1803 61.2114C36.4918 63.3375 38.8032 65.513 41.0655 67.6885C42.5409 69.2707 43.9672 69.6168 45.295 69.419C47.8524 69.0235 49.4754 66.5513 49.1803 66.1557C46.5245 63.4363 43.6721 60.7169 40.8196 58.047Z" fill="#00AAD6"/>
<path d="M60.1966 52.707C57.6884 52.4598 55.8196 52.6082 55.6228 51.2732C55.4753 50.0865 56.4097 49.3449 58.5737 49.0976C60.836 48.801 63.3933 49.5921 65.1146 50.8282C65.2622 50.9271 67.5245 48.9493 67.3278 46.9716C67.2294 45.8838 66.4917 44.9444 65.0655 44.3016C63.4917 43.6094 61.0819 43.2633 57.7868 43.6588C51.1966 44.4994 47.9507 47.8616 48.6884 52.5093C49.3769 57.2064 53.5081 58.1459 57.4917 58.4425C59.8524 58.5908 61.672 58.6403 61.8687 60.0247C62.0163 61.2114 61.0819 61.9036 58.9179 62.2002C56.5081 62.4969 53.4097 61.6564 51.7376 60.5192C51.4425 60.3708 49.6228 62.4969 49.8687 64.2274C50.0163 65.3646 50.7048 66.3535 52.0327 66.9468C53.6065 67.7379 56.1146 68.084 59.6556 67.6391C66.4917 66.7491 69.6884 63.733 69.1474 58.7392C68.6556 54.5365 64.9179 53.1026 60.1966 52.707Z" fill="#00AAD6"/>
<path d="M79.9672 41.8294C77.8524 42.0272 75.7377 42.1755 73.6229 42.4227C71.1639 42.67 69.9344 44.2027 70.1803 46.7738C70.7213 52.0643 71.2623 57.3053 71.8032 62.5958C72.0491 64.7713 73.2295 65.7602 75.1475 65.5624C75.4918 65.513 75.836 65.513 76.1803 65.4635C78.2459 65.2658 79.1803 63.9802 79.0328 61.8541C78.9344 60.7664 78.836 59.6786 78.7377 58.5414C79.6721 58.4425 80.6065 58.3931 81.4918 58.2942C88.0328 57.7503 91.377 54.8331 91.0328 49.3449C90.7869 43.9061 86.8524 41.2855 79.9672 41.8294ZM80.8524 53.152C79.9672 53.2015 79.0819 53.3004 78.2459 53.3993C78.0492 51.4215 77.9016 49.4438 77.7049 47.466C78.541 47.3671 79.377 47.3177 80.2131 47.2682C82.5246 47.0705 83.8524 48.0593 84 49.9876C84.0983 51.8171 83.0164 53.0037 80.8524 53.152Z" fill="#00AAD6"/>
<path d="M110.164 57.602C107.164 57.7009 104.213 57.7997 101.213 57.8986C101.164 56.7614 101.115 55.6242 101.066 54.487C103.033 54.3881 105 54.3387 106.967 54.2398C109.328 54.1409 110.312 53.3498 110.262 51.4709C110.262 51.4215 110.262 51.4215 110.262 51.3721C110.213 49.6415 109.23 48.8999 106.771 48.9988C104.803 49.0482 102.787 49.1471 100.82 49.246C100.771 48.2571 100.721 47.2188 100.672 46.2299C103.672 46.0816 106.672 45.9827 109.672 45.9332C111.984 45.8838 113.066 45.0927 113.016 43.1149C113.016 43.0655 113.016 43.0161 113.016 42.9172C112.967 41.0383 111.885 40.1483 109.525 40.1978C105.246 40.2967 101.016 40.4944 96.7377 40.6922C94.2787 40.8405 92.9508 42.2744 93.1476 44.8949C93.4426 49.9382 93.7377 54.9815 94.0328 60.0247C94.1804 62.5958 95.5574 63.8319 97.9181 63.733C102.049 63.5352 106.131 63.3869 110.262 63.2386C112.525 63.1891 113.557 62.2497 113.508 60.2719C113.508 60.2225 113.508 60.1731 113.508 60.0742C113.508 58.2447 112.475 57.5525 110.164 57.602Z" fill="#00AAD6"/>
<path d="M125.901 40.0494C123.787 40.0494 121.623 40.0494 119.508 40.0494C117.246 40.0494 115.623 41.4833 115.672 44.0544C115.721 49.0976 115.82 54.1409 115.869 59.1842C115.918 61.3597 117.688 63.0902 119.901 63.0408C121.77 63.0408 123.688 63.0408 125.557 63.0408C133.082 63.0902 138 58.7392 138.246 51.6687C138.59 44.6972 133.869 40.0989 125.901 40.0494ZM125.508 57.0581C124.721 57.0581 123.885 57.0581 123.098 57.0581C123.098 53.3993 123.098 49.7899 123.098 46.131C123.934 46.131 124.82 46.131 125.656 46.131C129.049 46.131 131.213 48.1088 131.164 51.5698C131.065 55.0803 128.803 57.0581 125.508 57.0581Z" fill="#00AAD6"/>
<path d="M145.869 40.3956C145.525 40.3956 145.18 40.3461 144.836 40.3461C142.77 40.2472 141.639 41.335 141.541 43.5105C141.344 49.0976 141.147 54.6848 140.951 60.2719C140.852 62.4475 141.885 63.6341 143.852 63.6836C144.197 63.6836 144.541 63.733 144.836 63.733C146.902 63.8319 148.033 62.7441 148.131 60.5686C148.426 54.9815 148.672 49.3943 148.967 43.8072C149.066 41.6316 148.033 40.4944 145.869 40.3956Z" fill="#00AAD6"/>
<path d="M169.623 43.1644C168.197 42.1261 165.934 41.335 162.639 41.0878C156 40.5933 152.213 43.2138 151.967 47.911C151.721 52.6576 155.557 54.3881 159.393 55.4759C161.705 56.1187 163.475 56.5142 163.377 57.9481C163.279 59.1347 162.246 59.6292 160.033 59.4808C157.574 59.2831 154.77 57.8492 153.344 56.3659C153.098 56.1681 150.836 57.8986 150.787 59.5797C150.738 60.7169 151.18 61.8047 152.311 62.6947C153.689 63.7824 156.049 64.623 159.639 64.9197C166.475 65.4635 170.213 63.1397 170.705 58.0964C171.098 53.8937 167.754 51.6687 163.18 50.3337C160.77 49.5921 158.902 49.3449 159 48.0099C159.098 46.8232 160.18 46.3288 162.295 46.4771C164.557 46.6749 166.918 47.911 168.344 49.4932C168.492 49.5921 171.098 48.1582 171.295 46.131C171.393 45.1421 170.902 44.0544 169.623 43.1644Z" fill="#00AAD6"/>
<path d="M187.721 43.9555C187.377 43.9061 186.983 43.8566 186.639 43.8072C184.574 43.5599 183.393 44.4994 183.147 46.7243C182.754 50.2349 182.311 53.7948 181.918 57.3053C181.623 59.9753 180.541 60.8653 178.377 60.618C176.705 60.4203 175.328 59.4808 174.393 58.0964C174.295 57.9481 171.934 58.7886 171.688 61.4091C171.393 64.2274 173.902 66.2052 178.82 66.7985C184.77 67.4907 188.311 64.9197 189.197 58.3436C189.688 54.7837 190.131 51.2237 190.623 47.6638C190.869 45.4883 189.836 44.2522 187.721 43.9555Z" fill="#00AAD6"/>
<path d="M206.164 46.3288C198.836 45.1422 192.836 49.3943 191.902 56.3659C190.967 63.3375 195.295 68.9246 202.279 70.0618C209.262 71.199 215.164 67.2929 216.492 60.3708C217.82 53.4487 213.541 47.5155 206.164 46.3288ZM209.361 59.0853C208.771 62.4475 206.41 64.2769 203.312 63.7824C200.262 63.288 198.59 60.8158 199.082 57.4042C199.623 53.9431 201.984 52.0643 205.131 52.6082C208.279 53.0532 209.951 55.6737 209.361 59.0853Z" fill="#00AAD6"/>
<path d="M240.59 53.4981C240.393 53.4487 240.147 53.3993 239.951 53.3498C237.885 52.8554 236.508 53.7454 236.016 55.822C235.377 58.7886 234.688 61.7058 234.049 64.6724C232.082 60.5686 230.066 56.4648 228 52.3609C227.262 51.026 226.77 50.3832 225.049 50.0371C224.803 49.9876 224.606 49.9382 224.361 49.8888C222.492 49.4932 221.115 50.3832 220.721 52.5587C219.688 58.047 218.606 63.5352 217.574 69.0235C217.18 71.1496 217.967 72.4845 219.885 72.8801C220.082 72.9295 220.328 72.979 220.525 73.0284C222.541 73.424 223.82 72.534 224.262 70.4079C224.902 67.4413 225.492 64.4747 226.131 61.508C228.197 65.6613 230.262 69.7651 232.18 73.9184C232.82 75.2534 233.262 75.7478 234.934 76.1434C235.131 76.1928 235.328 76.2423 235.475 76.2917C237.246 76.6873 238.574 75.8962 239.115 73.7701C240.393 68.3313 241.721 62.8925 243 57.4536C243.443 55.3276 242.606 53.9926 240.59 53.4981Z" fill="#00AAD6"/>
</g>
<defs>
<clipPath id="clip0">
<rect width="246" height="80" fill="white"/>
</clipPath>
</defs>
</svg>
