<svg xmlns="http://www.w3.org/2000/svg" viewBox="0 0 1090.1 557.7"><defs><style>.cls-1{fill:#fefefe;}.cls-2{fill:#e3b057;}.cls-3{fill:#92bde2;}.cls-4{fill:#80b57b;}.cls-5{fill:#6cb476;}.cls-6{fill:#9ab13b;}.cls-7{fill:#eecb5a;}.cls-8{fill:#f8e581;}</style></defs><g id="Layer_2" data-name="Layer 2"><g id="svg"><g id="World"><g id="South-Pole"><path id="south-pole-2" data-name="south-pole" class="cls-1" d="M258.3,557.4H265a25,25,0,0,0-2.9-.5,9.72,9.72,0,0,0-3.8.5Z"/><path id="south-pole-3" data-name="south-pole" class="cls-1" d="M844,530.5a8.66,8.66,0,0,0-3.2-.6c-1,0-2.1.3-3.1.3-1.9,0-3.5-1.2-5.1-2.3-2.7-2-7.9-4.4-10-6.8H822c-.6.1-1.2.9-1.6,1.2.5-.3-9.6-4.2-10.5-4.4-1.6-.3-6.7-3-7.6-2.6a.76.76,0,0,1-1-.6,4.79,4.79,0,0,0-3.8-3.9c-.5-.1-.8-.6-1.2-1a5.72,5.72,0,0,0-3-1.5c-1.6-.4-3.3,0-4.8-1-1.5-.5-3.1-1-4.7-1.6a9,9,0,0,0-2.2-.6c-2.8.7-5.7,1.2-8.4-.2-1,.1-1.2.8-1.4,1.7-.3,1.1.1,2.6-1.3,3.1a2,2,0,0,1-2.6-1.1v-.1c-1.4-1.8-3.5-2.3-5.5-2.5a1.94,1.94,0,0,0-2.4,1.4c-.3,1-.8.9-1.4.3a2.85,2.85,0,0,0-1.4-.8c-1,.2-1.2,1.6-2.3,1.6a8.8,8.8,0,0,0-1.5.5c-1.8.8-3.7.2-5.5.5a1.8,1.8,0,0,0-.9.4c-.3,1.2.8.7,1.2,1a2.93,2.93,0,0,1-1.6-.4c-.2-.1.3-.2.4-.5.1-1.2-.9-.9-1.5-1a25.72,25.72,0,0,1-3.8-.8c-3.3-1.3-6.1-.9-8.1,2.3-.2.4-.6.2-1,.2-1.8,0-2.6-.7-2.9-2.6-1.5-1.3-3.4-1.4-5-2.3-.2-.1-.4-.1-.6-.2a92.44,92.44,0,0,0-9.2-1.1c-2.4,0-4-1.4-5.7-2.8-1.2-.6-2.2-.5-2.8.9a10.9,10.9,0,0,0-.3,2.6,2.11,2.11,0,0,1-1.8,2.3c-1.5.5-3.1,0-4.7.4-1.3.4-2.6,1-4,1.3-1.4.1-1.8-1-2.3-1.9-1.1-1.7-2.1-2.1-3.9-1.2a15.05,15.05,0,0,0-1.7,1,8.17,8.17,0,0,1-2,1.2c-.8.3-1.4-.4-2.1-.3a.76.76,0,0,0-.5.2c-.3.4-.3.6-.2.7-.6-.2-1.2-.3-1.6.6v.6c.2,1.6.1,3-1.6,3.8a12.27,12.27,0,0,1-2.6,1.2c-.6.3-1.2.5-1.8.8-1.4.8-3,1.8-3,3.4,0,2.2-1.2,2.9-2.8,3.6a1.88,1.88,0,0,1-1.9.2.76.76,0,0,0-.5.2c-.2.2-.5.5-.6.5-.4-.2.1-.5.1-.8v-.6c-.4-1-.5-2.1-1.4-2.7-.2-.5-1.3.8-.9-.6-1.1-1.9-1.5-2.1-3.3-1a1.61,1.61,0,0,1-2.3-.3c0-.1-.1-.1-.1-.2a9.39,9.39,0,0,1-1.2-1.8,2,2,0,0,0-2.2-1.1,15.13,15.13,0,0,1-7-1,17.06,17.06,0,0,0-4.5-.3,24.76,24.76,0,0,1-8-1.6,3.7,3.7,0,0,0-2.7-.9c-.9-.1-.9-.5-.3-1.1a.91.91,0,0,0,.1-1.2,24.33,24.33,0,0,1-2.5-2,4,4,0,0,0-3.4-1.5,9.6,9.6,0,0,0-7.1,2,2.3,2.3,0,0,0-.6,2.6c.4,1.3.1,1.8-1.3,1.2-1.2-.5-2.3-.7-2.2,1.3-.2,1.6-.5,1.8-1.8,1.5a1.14,1.14,0,0,0-.3-.8c-.6-.6-1.6-1.3-2.2-.6-1.2,1.3-3,1.1-4.3,1.9-2.3,1.3-3.5,3.9-6.1,4.9a4.23,4.23,0,0,0-2.7,3.9,2.61,2.61,0,0,1-2.6,2.7h-.2c-1.1-.1-2.4.3-3.4,0-1.2-.3-1-2.5-3.2-2,.5-.6-.5-1.3-1.2-1.2s-1.4.7-2.1.6a3.81,3.81,0,0,1-1.3-.9c-3.5-2.8-5.4,3.2-8.4,3.6-2.2.2-3.9,1.7-6.1,1.8-.2.1-.3.2-.5.3a1.21,1.21,0,0,1-1.5-.2c-.2-.1-.3-.2-.5-.3-1.8-.4-3.8-.3-5.5-1.2a14.92,14.92,0,0,1-2.1-.2,3.1,3.1,0,0,1-1.3-.6,3.89,3.89,0,0,0-2.3-.7c-2,.6-3.5.2-4.2-2-1.5-.5-2.4.2-3.2,1.3l-.5.7a4,4,0,0,1-1,1.2,2,2,0,0,1-1.3.1,17.06,17.06,0,0,0-4.5-.3h-1c-1.8.2-3.7-.3-5.3.9-.7.5-1.3,0-1.9-.5a1.5,1.5,0,0,0-1.1-.4,6.21,6.21,0,0,1-5,0h-.5a.84.84,0,0,1-1.1-.4c-.2-.2-.3-.4-.5-.6a4.64,4.64,0,0,1-1.2-2.3c-.4-1-1.1-1.6-2.2-1.1-.7.9.1,2-.5,2.9a3,3,0,0,1-.4.8,3.52,3.52,0,0,1-2.3,2.3l-.5.3a9.47,9.47,0,0,1-2.9.7,15.32,15.32,0,0,0-7.6,1.6c-1.2.3-1.5,1.8-2.7,2.1-4.8,1.3-4.1,7.5-9.4,8.4-2.8.5-5.8.7-7.9,2.7-1.5,1.5-2.2,3.6-3,5.6a33.56,33.56,0,0,1-5.2,9H838.8c.5-.9,1.1-1.8,1.7-2.7,2.8-4.3,6.3-8.5,8.2-13.3,1.6-4.6-.4-9.5-4.7-11.2Z"/><path id="south-pole-4" data-name="south-pole" class="cls-1" d="M319,552.8a3,3,0,0,0-1.6,4.6h7.2C322.6,555.4,320.3,552.6,319,552.8Z"/><path id="south-pole-5" data-name="south-pole" class="cls-1" d="M312.9,554.6c-.8-.9-8.2-3.4-9.2-3-1.9.6-3.8.1-5.7.7-.4-.1-.2.6-1,.5a8.27,8.27,0,0,1-4-1.6c-2.2,0-4.6,0-6.6-1.1-2.4-1.4-8.8,2.3-11.2,3.1a8.86,8.86,0,0,0-1.7.8,17.38,17.38,0,0,0-1.3,1.5,7,7,0,0,1-2.2,2l46.1-.1a10.61,10.61,0,0,1-3.2-2.8Z"/><path id="south-pole-6" data-name="south-pole" class="cls-1" d="M411.4,493.6c-2,.5-3.5,1.9-5.2,2.9a2.18,2.18,0,0,0-.4.5,8.13,8.13,0,0,1-1.9,1.8,12.67,12.67,0,0,0-1.3,1.1,4.23,4.23,0,0,1-.7.5c-.6.6-1.8.7-1.7,2a2.2,2.2,0,0,1-.1.8,6.42,6.42,0,0,0-1,1.3,6.79,6.79,0,0,0-2.2,3.5c-.2,1.1-.7,3.3-3,2.9-.8.8-.9,1.7.1,2.4a1.39,1.39,0,0,1,.6,1.7,31.06,31.06,0,0,1-.4,3.2,3.78,3.78,0,0,1-1,2.7,5.87,5.87,0,0,0-2.1,4c-1.4-.4-.6-2.2-1.6-2.8-1.5-2.5-1.5-2.5-3.6-1.5a2.66,2.66,0,0,0-1.1,2.2,10,10,0,0,1-4.2,2.5,1.87,1.87,0,0,0-.5,1.4c.3,1.4.7,2.8-.8,3.8-.1.1,0,.4.1.6.5.5,1.2.4,1.8.6a.85.85,0,0,1,.8.7c.1.5-.3.6-.6.8-.6.3-1.2.5-1.8.8a1.81,1.81,0,0,0-1.1,2.5,3.53,3.53,0,0,0,.8,1.3c.4.4.9.8,1.3,1.2.9.8,2.3.4,3.1,1.3a3.65,3.65,0,0,1,.3,4,1.19,1.19,0,0,0,.4,1.1c.7.5.5.9-.2,1.2a1.06,1.06,0,0,1-1.6-.4.37.37,0,0,1-.1-.3c-.7-2.1-2.2-2.5-4.1-2.3-.2,0-.3.1-.5.2-.7-1.3-1.3-2.8-3.3-2.1-.5.4-.8,1.1-1.4,1.3a1.76,1.76,0,0,0-.5.4,2.13,2.13,0,0,0-.1,1.9,8.69,8.69,0,0,0-4.1-1.1,48.64,48.64,0,0,1-5.4,0c-3.7-.5-6.9-3.4-10.6-3.5-2.3-.1-4.5.9-6.8,1.4-4.7,1-5.9-3.9-9.4-3.1-.9.2-1.7.8-2.7.3a1.69,1.69,0,0,0-.5-.2,8.49,8.49,0,0,0-2.2-.9,4.78,4.78,0,0,0-3.5.9c-.2.1-.3.3-.5.4-.3,1-2.4.8-1.8,2,1,1.8-.1,3-.4,4.4.2,1,.3,1.8,1.2,2s1.9,0,2.7.4a1.38,1.38,0,0,1,.3.4c0,.6-.7.5-1,.7a1.34,1.34,0,0,0-.7,1.4c.4,2.3.1,4.7,1.2,6.8h76.9c.6-1.7.5-4.4.5-6a.37.37,0,0,0,.3.1c.4-.1.6-.6.7-1a55.6,55.6,0,0,0,1.2-16.3c-.2-3.2-1.7-6.4-.4-9.7a6.54,6.54,0,0,0,.2-3.1c-.3-1.2-.4-2.5-.6-3.8a15.15,15.15,0,0,1,0-6c.1-1,.2-2.1.2-3.1a4.48,4.48,0,0,1,1.4-3.1,1.42,1.42,0,0,0,.2-.6c.8-2.6,1.8-5.1,2-7.9.2-.5.4-1,.6-1.4.1-.9.9-1.6-.2-2.1Z"/><path id="south-pole-7" data-name="south-pole" class="cls-1" d="M405.6,550.3a2.88,2.88,0,0,0-.1-1.3c-.2.1.1-.2.1,0A2.85,2.85,0,0,1,405.6,550.3Z"/></g><g id="South-Africa-Continent"><path id="south-africa" class="cls-2" d="M672.6,345.3l-.7-2.6-.9-1.6-1.1-1.6-1.3,1.7-.2,2.3-2.1,2.6-1.5-.5.4,1.7-1.2,1.8-3,2.4-2.2,2.1-1.5.1-1.4.7-2,.7-1.8.1-.6,2.4-1.4,2.2.1,3.4.5,2.4.7,1.8-.5,2.4-1.9,2.9-.1,1.2-1.6.7-.9,2.7.2,2.7.9,3v3.4l.8,2,2.6,1.3,1.9,1,3.2-1.6,2.9-.9,2-4.4,1.8-5.2,2.7-7.2,2.2-5.2,1.7-4.4.4-3.2,1.1-.8.4-1.7-.5-2.7.8-1.2,1,2.2.7-1,.5-1.9-.8-1.7Z"/><path id="south-africa-2" data-name="south-africa" class="cls-2" d="M677,252.4l-.2-2.6-.1-1.1h-1.4l-1.6,1.3-1.9.4-1.6.5-1.1.1-2,.1-1.3.7-1.8.2-3.1,1.2-3.8.4-3.3,1H652l-1.7-1.6-.8-1.6-1.2-.7-1.5-1,2-.9.1-1.5-.9-1.2-1.9-1.1-1.1-1.3-2-2.2-2.1-2.1-5-3.6-2-1.8-1.2-3.5-2.3-4.3-2-1.4-1.4-.9-1.6-4.5-.8-3.9.8-.6-1.3-3.7-.7-.8-4.3-3.4-.2-2.5.6-.6-3.4-4.2-1.4-2.1-1.5-2-3.1-5.9-2.5-3.8-1.8-3.9.3-.4,3,5.4,1.7,1.6,1.3,1.2.8-.6.8-2,.4-2.8.8-1.5-.4-.9-2.5-5.5-1.6.9-2.7-.2-2.8-.9-.7,1.2-1.1-1.9-2.5-.5-3,.4-1.3,1.1-2.5,1.2-1.6-.6-3.5-1.1-3.4-1-4.5.1-.9-1.2-3.4-.4-1.1-.6-1.3-.1-1.3-1.6-4.7-.8-2.3.5-2.3,1.8-.9,1.9,1,2.9-1.6,1.7-1.6,1-3.8-1.9-4.9-1.6-3.1-.7-1.8-3.4-4.6-1.7-2.8-.6-1.5.4-4-1.3-1.3-.6-.9-1.8-1.8-.1-.8-2,2.2-1.9.3-3.3-1.2-.9-.1-1.7,1.6-1.9-.2-.7-2.8,1.4v-1.9l-2.3-.4-3.6,1.5-2.3.2-1.4-.9-3.6.1-3.1,1.5-1.7-.5-5.5.3-5.7.6-3.2,1.2-2.1,1.5-3.6.6-3.2,2.1h-1.4l-3.5-.8-3.2.2-2-1.6H475l-1.1,2.2-2.3,3.9-2.6,1.6-3.4,1.7-2.3,2.5-.6,2-1.4,3.3.8,4.6-3,3.2-1.8,1-2.8,2.6-3.2.4-1.8,1.5-.1.1-2.3,3.8-2.4,1.4-1.3,2.3-.1,2.1-1,2.2-1.2.6-2,2.4-1.3,2.6.2,1.3-1.2,2-1.4,1-.2,1.8-.2,1.6,1.8,1.6.9,1.8-.4,1.9.4,1.9.2,3.8-.5,3.5-1,1.9.3,2-.9,1.9-1.7,2.6-1.6.8,1.7,1.3,1.5,2.9-.5,1.3.5,2.9.3.8,1.1.8-.1.6.8,1,1.5.3,1.8,1.5,1.1.6.5.8.4,1.6.9.8.9.5,1.4,1.5,1.5,2.2.4,2.8.6,1.4,1.9,2,2.5,1.5,1,.3,2.4,2.4,3,2.1,3.3,2.9,3.7,1.8,1-.1.7.1,3.5-1.4,2.5-1.1,4.2-.7h2.3l2.5.7h1.6l3.1,1.1,3.2-1.1,2-1.3,5.6-2.2,2.8-.8,3-.5h5.8l2.5,2.5,1.2,2.7,2,2.4,2.8.1,1.4-.8,1.3.2,3.7-1.4-.1,1.1.9.5.7,1.7,1.6.6,1.5,2.5-.6,3-1.2,4.2.7.5L528,293l-.8,2.8-.8,1.2-.1,1.3,2.2,3.9,2.3,3.1,3.7,3.8,2.9,4,.9,2.8.5,1.2-.4.7,1.8,2.4.8,2.5,1,3.6-1.1,1.5-.2.8.8,2.2,1,2.3,1,1.4.2,2.2-.4,2.8-1.2,1.7-2.1,2.4-.9,1.5-1.2,3.4-.2,1.6-1.3,3.5-.6,3.4.3,2.4.2,2.9,2.8,3.7.7,2.4,1.8,4.5,1.8,3.1,1.3,1.6.4,2.1-.1,4.6,1,5.8.8,2.7.6,3.7,1.3,2.7,2.5,2.9,1.8-1.9,1.3,1.1.5,1.6,1.6.3,2.2.7,1.8-.3,3.2-1.9.7-13.9.9.6,1.9,3.6-.4,2.3.7,1.4,2.5-.4,1.8-1.7,1.7-1.1,1-1.8,1.8-.8,1.5.4,1.6,1.1,2.8.2,2.3-.8.4-1.2.8-1.8,1.9-.3,1.1-1.4,1.3-2.5,3.3-2.8,5.1-2.8h1.4l1.7.6,1.2-.5,1.8.4,1.4,5.3.7,2.7-.9,4.2.2,1.3-1.7-.6-1,.2-.4,1.1-1.1,1.5-.1,1.3,2,2,2-.4.9-1.6H609l.5-2-.8-.2-.2-1.6,1.6-1.4,4.4-2,3-1.2,1.5-1.4.6-1.6-.8-.6.7-1.8.3-3.7-.6.2V377l-.6-2.2-1.5-2.9.5-2.7,1.5-.8,2.7-2.7,1.4-.7,4.2-4.1,4.1-1.8,3.3-1.4,2.3-2.4,1.5-2.6,1.2-2.7-.5-1.8.1-5.9-.3-3.4.3-3.8-.6-1.6-1.3-.8-1.4-3.8-1.1-2.4.3-1.8-.2-1.1,1.1-2.3-.1-1-2.2-1.4-.2-2.1,1.8-4.7,1.5-1.2.7-2.5,1.2-1.5.5-2.7,1.4-.2.9-1.6,2.5-1.5.8-.9.8-2,3.9-4.6,3.3-2.8,5.3-3.8,3.5-3,4.2-5.2,3-4.2,2.9-5.5,2.1-4.8,1.5-4.2.9-4.1.7-1.4-.1-2Zm-71.4,74.8-.8-.8-1.2-.3.4-1.5-1-1-.4-2.1-2.2-2.1-1.1-2.7.6-1.6-1-2.1.8-6,1.3,3.8-.2,1.6.6.5-.1,1.6.7,1.5-.9,1.4,2.8,2.6.3,2.4,1.7,3.9.3.6-.6.3Zm7.6-23.4-.4-.5-2.1.2-1.6.9-1-1.5.7-2.6.1-2.3-.2-1.5,1.6-2.2,2.3-.5,1.5-.9,1.9.8.1.2.9,1.5-.2,2.8-1.8,1.7-1.2,1.7,1.5,1.3Zm6.7,44.7-1.2-1.5-.6.9-.6-.8.1-1.4-.8-1.1.1-1.6-1-2.8,1.1-2.1-.1-4.5-1.1-2.4.1-.5.2-.7,1.8,2,.2,4,1.1,1.4-.1.1-.9,3.6.4,4.3.1.5.7.2.6,2Z"/></g><g id="Grenland"><path id="grenland-2" data-name="grenland" class="cls-3" d="M271.9,62.6l-1.8,1-.2.2v1l1.1.3,2.3-1.7-.3-.8Z"/><path id="grenland-3" data-name="grenland" class="cls-3" d="M260.7,62.4v.8l1.9.2,4.6-1.9.5-.7h-3.8Z"/><path id="grenland-4" data-name="grenland" class="cls-3" d="M271,57.2l.9-1.6-2.4-1-2.2-1.2-1-.9-1.7.6.6-1.5-1.8-.2-3.2,3L257.9,57l-3.6,1.7,4-.3-.4,1.9,5.2-1.7,3.9-1.8.5,1.5,3.8.8,3.1-1-1.2-1.2Z"/><path id="grenland-5" data-name="grenland" class="cls-3" d="M296.5,45.3l.9-1.3-1.4-.9-2.7.4-2.4,1.8-.5,1.6,3.1-.2,2.4-.9Z"/><path id="grenland-6" data-name="grenland" class="cls-3" d="M245.8,38.6l-1-.6-1.9-.8-3.1,1.3-3.1,1,2.1,1.4,2.5-.3,2.6,1,2.6-1.2-.4-1.2Z"/><path id="grenland-7" data-name="grenland" class="cls-3" d="M229.7,34.5l1.5-2.2,1.7-3-1.4-1.2-1.9-.5-2.7.5-1.8,3.1-2.7,1.2,1.4-2.9-1.1-1L218.1,30l-1.7-1.5-6.6.9,3-1.4-1.8-.6-8.9,1.8-3.3,1.3-5,2.3,3.5.8,3.9-.1-7.4,1.3v1.1l3.6.1,5.8-.3,4.1.7-3.9.6-3.5-.1-4.6.5-2.1.3.4,2.6,2.7-.4,2.6.8-.2,1.6,5-.3,7.1-.5,6-1.1,3.2-.2,3.6.9,4.2.5,2.1-1.2-.5-1.2,4.4-.3,1.7-1.3L232.3,36Z"/><path id="grenland-8" data-name="grenland" class="cls-3" d="M231.8,27l1.5,2.1,4.4-2-1.1-.7-3.5.1Z"/><path id="grenland-9" data-name="grenland" class="cls-3" d="M298.1,26l-1.4.3-1.1,1,1.3,1.6.6.3,3.1-.4h2.6l2.6.1.4-.9-2.8-1.6Z"/><path id="grenland-10" data-name="grenland" class="cls-3" d="M324.1,44.5l-3.8-.7-4.8-2.1,5.7-1.5-.5-3L319.3,36,314,34.7l-1.2-1.9-5.2.6.7-1.3L306,30.6l-4.3-1.5-3.4,1.2-5.7.9,2.1-2-1.5-3.1-7.4,1.2-4.5,2.5-.2-1.9,3.7-2-7.1.9L273.9,28l-4.5,2.7-2.1,3.1h3.6L267,35.2l1.2,1.1,3.7.5,4.7.9,8.8.7,5-.4,2-.9,1.3,1.1,2.1.1,1.3,2-2.3.9,4.5,1,3,1.6.3,1-.2,1.5-5.6,3.2-2,1.6.2,1.2-5.9.4-5.1.1-3.4,2.4,1.5,1.2,8.3-.6.5-.9,3,1.6,3,1.7-1.5,1,2.4,1.6,4.8,2,6.9,1.3.2-1.2-1.8-2L305.6,58l5.5,2.6,2.9,1,2.3-2.4.1-3.4-.7-.9-2.8-1.5-1.7-1.9,1.4-1.9,3.8-.4,2.4,3.2,2.5,1.4,6.9-3.9,2-2.2-4.1-.3Z"/><path id="grenland-11" data-name="grenland" class="cls-3" d="M252.2,28.4l3.9-1.5.3-.9-4.8.5-2.3-.7-4.5,1.5.5,1.9-4.6-.3-1.1,1,3.7,2.3.6,1.2,2.1.2,5.3-1.2,3.3-2.7Z"/><path id="grenland-12" data-name="grenland" class="cls-3" d="M258.6,27,257,28.5l-1.1,2.7,2.7.1,5-2.3,3.5-.5,6.4-2.7-3.9-.8-5-.1-3.3.9Z"/><path id="grenland-13" data-name="grenland" class="cls-3" d="M206.7,27.7l4.1-.8-1-1.3-1.2-.8-6-.2L200,24l-8.9.5-.2,1.8-4.8,2-4.8,2.2-2.7,1.3,3.8,1.6-.4,1.4,8.5-1.5,1.6-1.3,5.9-2.2Z"/><path id="grenland-14" data-name="grenland" class="cls-3" d="M269.5,22.5l.2-1-.9-1-4.4.8-2.8,1.3,2,.8,3.3.2Z"/><path id="grenland-15" data-name="grenland" class="cls-3" d="M252.3,22.2l2,.5,4.3-.3,3.7-2.2,1.8-1.5-.2-1.3-.6.4-3.1-.2-4.8,1-2.4-.1-2.8,2.2,4.2-.2Z"/><path id="grenland-16" data-name="grenland" class="cls-3" d="M219.8,18.9l-7.3,2.8,2.6.5,11.3-.3-6.8,1.3-.9,1,3.8-.1,7.8-1.3,8.7-.4,3.2-1.4,1.5-1.5-2.3-.1-2.8.5.5-1,1.1-1.4-1.9-.3-3.7,1-.4,2.8-3.9-.2-1.8-1.7-5.3-1Z"/><path id="grenland-17" data-name="grenland" class="cls-3" d="M273.3,18.5l.9,1.3-1.3,1.4-1,1.7,5.4.9,3.5.4,5.1-.1,7.4-.5,2.8.4,4.2-.6,2.3-.8.6-1.2-1.5-1.1-3.6-.2-5.1.3-4.5.5-3.2-.2-3.1-.1-.8-.7-1.9-.7,1.7-1-.9-1h-4.6l-1.5-.9-4.5-.2-2.4,1.2,1.6.9Z"/><path id="grenland-18" data-name="grenland" class="cls-3" d="M210.8,19.3l6.3-1.2,2.4-.2,3.3-1,3.7-2.1-3.9.4-3.5-.1-7.7,1.8-7.3,2.2,2.2.7Z"/><path id="grenland-19" data-name="grenland" class="cls-3" d="M272.4,15l4.2.2,1.1-.1.7-.3-1-.5-4.6-.1Z"/><path id="grenland-20" data-name="grenland" class="cls-3" d="M240.6,14.6l2-.8-2.6-.4-3.8.3-3.2.8,2,.9Z"/><path id="grenland-21" data-name="grenland" class="cls-3" d="M245.5,12.1l-2.1-.5-1-.1-3.6.8-.7.4h3.8Z"/><path id="grenland-22" data-name="grenland" class="cls-3" d="M275,13.6l1.9-.9-1.4-1-1.1-.2-2.8-.1-1.4,1.1-.3,1,1,.7Z"/><path id="grenland-23" data-name="grenland" class="cls-3" d="M259.8,12.8l2.5.9,3.3.3.7-1.1.1-1.3-4.7-1-3.9-.3-1.4,1,1.8.7-3.4.7Z"/><path id="grenland-24" data-name="grenland" class="cls-3" d="M285.8,10.1l-2.7.7-1.3.9,1,1.1,4.3.4,4.3-.2,6.7-2,4.1-.8-1.7-.9.4-1.6-3-.6-3-.5-1-1.3-5.2.1.2.6-2.6.2-2.6.8-3,1.1-.3,1.1,1.3.9Z"/><path id="grenland-25" data-name="grenland" class="cls-3" d="M299.2,6.3l2.8.8,7.9-.1,4.6.3-4.6.9-1.4-.3-5.9-.1-.7,1.3,1.9,1-1.8,1-4.8.6-3.1,1.1,3.1.5,1.1,1.8-4.8-1.2-1.6.2-1.3,2-5,.6-1.4,1.4,4.3.1,3.2.4,7.4-.5,5.3.8,8-1.7.7-.7-4,.2.3-.7,4.1-.9,2.2-1,4.4-.8,3.1-.9-.4-1.4,2.1-.5-2.8-.3,7.1-.2,2-.6,5.1-.4,5.9-2.1,4.3-.7,6.6-1.5h-4.8l2.6-.5,5.7-.5,6.1-1,.7-.6-3.2-.5-4.3-.3-5.5-.2L346,1,341.6.8l-6.5.4-.8-.2-6.6.1-4.1.2-3.3.4-3.1,1.1-1.5-.6-2.5-.1-4.3.9-4.7.3-2.6.1-3.8.4-.7.8,1.6.7Z"/><path id="grenland-26" data-name="grenland" class="cls-3" d="M461.1,3.8l-10.8.9-5.8.9,2.8-1.4-1.5-.8-4.4.7-6.1-.8-7.8.3-.9-.5,11.7-.2,8.2-.1,4.2-.8L438.2.2,421.6,0l-7.5.1-3.2.9L403.6.8l-8.1,1.3-1,1,4.3,1.3-4-.8-2.9-.2-4.4-.8-6.7,1.2L379,3.1h-6.6l-6.9.4-5.7.6-.1,1.1-3.4.2L347,7.1l-2.9,1,5.1,1-1.7.9L338,11.3l-9.9,1.3-1.4,1.1,4.1,1.1,9.2.7-4.8.2-6.9.8,2.4,1.9,1.9.9,6-.2,6.4-.2,4.9.3,5.1,1.7-.9,1.2,2.3,1.1.8,3.2.7,2.1.9,1.1-4.5,2.8,1.7.8,2.8-.4,1.7,1.1,3.3,2L359,35h-2.4l-1.9,1.7-.9,2.1,2.6,1,2.6-.4,1.7-.4,3.4-1.1-1.8,2.4-1.6,1.3-4.5,1.2-4.4,3.8,1.2,1.2-2.1,2.4,2.3,3-.9,3,.4,2.2,3,4.2.5,3.3,2,1.9h5.7l3.2,2.8,4.1-.2,2.6-3.4,2.2-2.8-.2-2.6,5.5-2.7,2.1-2.2.9-2.4,3-2,4.2-.8,3.8-.8,1.9-.2,6.5-2.2,4.7-3.5,3.1-1.2,2.9-.1,8-1,7.7-2.5,7.5-2.8-3.4-.2-6.8-.1,3.4-1.6-.3-2.1,2.6,1.7,1.7,1.3,4.7-.6-.4-2.6-2.9-1.8-3.1-.8,1.5-.8,4.6,1.3.3-1.4-2.6-2,3.4-.1,3.6-.5,1-1-2.5-1.2,5.5-.2-2.6-2.6,2.7-.2V19.2l-3.9-1.5,4.1-1h3.7l-2.4-1.9.8-3.1,2.3-1.7,3.1-1.9L450.6,8l7.1-.5,1.4-.5,9.4-1.7-1.1-1Z"/><path id="grenland-27" data-name="grenland" class="cls-3" d="M456.2,49l-4.5-.2-4.6,1.7-3.2-.9-4.4,1.8-3.8-2.3-4.1.5-2.3,2.2,5.5.7v1l-5,.7,5.7,1.6-3.1,1.4,7.6,1.1,3.5.5,2.5-.6,8.2-2.3,3.9-2.5-2.8-2.3Z"/></g><g id="North-America-Continent"><path id="north-america" class="cls-4" d="M107.7,111.7l-2,.5-4-1.6v-1.3L99.9,108l.2-1.1-2.7-.6.4-2,1-.8,2.6.8,1.5.6,2.6.4.1,1.3.2,1.7,2,1.5-.1,1.9Z"/><path id="north-america-2" data-name="north-america" class="cls-4" d="M216.4,208.3l1.2,1.4,3.3-.4,1.1.9,2.6,2.4,2,1.7,1.1-.1,2,.8-.4,1.1,2.5.2,2.5,1.5-.5.9-2.4.5-2.4.2-2.3-.3-5.1.4,2.6-2-1.3-1-2.3-.2-1.1-1.1-.5-2.1-2,.1-3.2-1-.9-.8-4.5-.6-1.1-.7,1.4-.9-3.4-.2-2.8,1.9-1.4.1-.6.9-1.8.4-1.4-.4,2-1.1,1-1.4,1.7-.8,1.9-.7,2.7-.4.9-.5,3,.3h2.8l3.1,1Z"/><path id="north-america-3" data-name="north-america" class="cls-4" d="M131.4,38.5l-15.5,12L93.4,69.7l2.7.1,1.8.9.3,1.5.2,2.2,4.8-1.9,4.1-1.1-.4,1.8.5,1.4,1,1.6-.7,2.5-.9,4.1,2.9,2.2-2,2.2-3.2,1.7-.4-1.3-1.6-1.2,2.1-3.1-1-2.9,1.7-3.3-2.6-.2-4.5-.1-2.4-1.1-2.1-3.6-2.1-.6L88,70.3l-4.3.3L79.9,69l-1.7-1.5-4,.7L72,70.6l-1.8.2-4.2.7-3.9,1.2-4,.8,2-2.1L65.4,68l4.3-1.1.2-.8L64,68l-4.7,2.3-7.1,2.5.1,1.7L46.6,77l-4.9,1.5-4.2,1.1-2.6,1.6L28.2,83l-2.8,1.6-5.2,1.5-1.7-.2-3.9.9L10.2,88,6.3,89.2,0,90.3l.3-.6,5.2-1.6L9.7,87l5.4-1.9,4.1-.4,3.2-1.5L29,81.1l1.5-.7L34,79.2l3.7-2.6,3.9-2.1-4.4,1.1L37,75l-3.1,1.3.2-1.8-2.3,1.2,1-1.7-4.6,1.4H26.4l2.3-2.1L30.8,72l-.2-1.2-4.5.7-.4-1.6-.8-.8,2.5-1.9-.2-1.6,3.8-2,4.9-1.9L39.3,60l2.6-.2,1.1.5,4.5-1.6,1.6.3,3.5-1.1,1.6-1.5-.7-.6,3.8-1.3-1.8.1-3.9.7-1.8.8-1.1-.8-4.3.4-2.9-.8.8-1.3-.7-1.9,5.8-1.4,8.3-1.6h2.2l-2.7,1.7,5.8-.1.8-2-1.4-1.2.5-1.6-.4-1.4-2.1-1,4.1-1.7,4.7-.1,5.5-1.4,3-1.5,5-1.5,3-.3,7.1-1.4,2,.2,6.6-1.7,2.8.7-.3,1.4,2.1-.6,4,.2-1.2.7,3.1.5,3.1-.3,3.9.9,4.5.3,1.4.3,4.2-.5,2.6.9,1.8.3Z"/><path id="north-america-4" data-name="north-america" class="cls-4" d="M328.5,113l.2-1.9-2.4.6,1.8-2.7-2.7-1.1-1.8.9-2.4-1,1.5-1.2-1.8-.9-2.5,1.3,3.2-3.2,2.4-2.3.9-1-1.3-.1-3.1,1.2-2.7,2.1-5.2,5.8-3.4,2.2,1.1,1-2.4,1.3.1,1.1,6.1.1,3.5-.2,2.7.8-2.7,1.8,1.8.1,4.7-3.1.7.4-1.6,3,1.9.7,1.5-.1,2.2-3.3Z"/><path id="north-america-5" data-name="north-america" class="cls-4" d="M303.4,117.3l-4.6,4.1-5.4.6-3.5-1.9-.1-2.8.4-3.9,3.8-2.5-2-1.8-4.8.4-7.8,3-6.9,4.9-2.9.6,4.9-3.4,6.4-4.9,4.7-1.6,3.6-2.6,3.3-.3h4.6l6.4.8,5.4-.6,5-2.9,5.5-1.3,2.7-1.3,2.7-1.4,1.3-4-.7-1.4-2.2-.4V89.6l-1.5-1.1-4.3-1-1.9-2-3-2,2.2-2.2-1.3-4.2-1.6-4.4-.7-3.1-2.7,1.6L303.7,75l-5.2,2-1-2.1-2.4-.6,1.5-4.3,1.6-2.9-4.9-.3-.1-1.3-2.3-2L289,62.4l-2.9.9-2.6-.4-4.2-.9-2.4.8-2.5,5.3-.6,3.1-5.6,3.7,2,2.6.2,3-1,2.3-3.1,2.5-4.7,2.5-5.7,1.7,1.1,1.9L255.6,97l-3.6,3.8-2.9,1.1-2.8-3.4-.1-4.1,1.1-3.6,2.3-3-3.1-.4-4.8-.2-2.2-1.5-3.1-1-1.1-1.6-2.1-1.4-4.4-1.5-4.6.7.5-2.7.9-3.2-3.7-.6,3.1-4.1,3.1-2.7,5.9-3.8,5.5-2.8,3.6-.4,1.9-2.2,3.2-1.4,4.1-.2,4.8-2.3,1.9-1.4,4.7-2.8,2.1-1.6,2,1,4.1-.6,6.9-2.3,1.5-1.5-.6-1.8,3.2-1.7,1.1-1.5-2.3-1.6-3.4-.5-3.5-.2-2.9,3.4-4.1,2.9-4.6,2.2-.8-2.1,2.7-2.4-1.4-2-5.6,2.4,2.7-3.2-4.2-.6,3.7-1.6-.3-3.5-1.2-1.3-2.9-.6-5.2,2.3-3.4,3.4,1.8,1.3,1,2-4,3.2-2-.1-4,2.6,2.8-3.1-3.1-1.1-2.9.6-1.5,2-3.8-.1-4.5.5-3.3-1.4-3.2.2-1-1.7-1.3-.8-2.4.3-3.3.2L209.7,43l1.4,1.4L206.6,46l-.9-2-2.8.6-7.5.4-4-.7,5.4-1.6-1.9-1.6-2.8.2-2.9-.6-4.8-1.1L182,38.3l-2.9-.2-2,.9-3.8.5,2.4-2.4-5.9,2.2-.9-2.9-1.4-.3-2.4,1.5-2.9.7-.1-1.3-5.2.8-5.6,1.4-3.3-.4-4.4,1-4,1.3-2.3-.3-2.1-1.5-3.8-.8-15.5,12L93.4,69.7l2.7.1,1.7.9.3,1.6.2,2.2,4.8-1.9,4.1-1.1-.3,1.8.5,1.4,1,1.6-.7,2.4-.9,4.1,2.9,2.2-2,2.2L104.4,89l-1.5,1.8,1.3,2.6-2,2.9,2.6,1.6-2.2,2.1-.9,3.3,4.4,1.5,1.1,1.6,3.4,3.6h86.9l.8-1.4h1.1l-.6,2,.7.6,2,.2,2.9.6,2.5,1.1,2.8-.5,3.4,1,1.9-1.4,2.1-.6,1.2-.9.9-.5,2.6.7,2.1.1.5.5v2.1l3.3.6-1.1,1,.8,1.1-1.2,1.4,1.1.4-1.2,1.3.8.1.9-.5.2.8,2.2.5h2.4l2.4.4,2.6.7.5,1.1.9,2.9-1.5,1.2-2.4-.5-.7-2.3-.6,2.3-2.4,2.1-.5,1.8-.7,1-2.6,1.2-2.3,2.1-1.3,1.3,1.7.2,2.9-1.1,1.8-1.1,1-.2,1.7.4,1.1-.6,1.7-.5,3.1-.4.1-1.1H239l-1.1.2-1.2-.4,1.5-1.2,1.2-.5,2.5-.5,2.9-.5,1.2.7,1.2-.8,1.2-.5.6.2v.1l4.3-2.6,1.7-.7h10.8l.7-.9,1-.2,1.6-.6,1.8-1.7,2-2.9,3.5-2.7.7.9,2.3-.6,1,1.1-1.8,5,1.4,2.1,3.7-.5,5.1-.1-6.6,3.1-.9,3.1,2.3.3,4.6-2.7,3.6-1.4,7.8-2.3,4.7-2.4-1.6-1.3Z"/><path id="north-america-6" data-name="north-america" class="cls-4" d="M251.3,222.4l.2-1.1-1.9.1-.5-1.4-.9.1-2-.9h-2.8l-.5.6.1,2-.4,1.5-1,.6.8,1.1-.2,1.1.1,1,.8.6,1.7-2.6,1.2-.5.5,1,1.3-.3.7-.7,1.2.2,1.6-.2,1.7.9,1.4-1.6-1.6-1.3Z"/><path id="north-america-7" data-name="north-america" class="cls-4" d="M241.6,223.9l1-.6.4-1.5-.1-2-2.9-.6-2.2-.2-.9,1,2.2.6-.3,1.5,1.5,1.6-1.4.9-2.6-.3-3.2-.6-.5,1.3,1.8,1.1,1.7-.6,2.2.2,1.7-.2,2.2.6.2-1.1Z"/><path id="north-america-8" data-name="north-america" class="cls-4" d="M189.2,253.1l1,.5-.6,1.2-.1,1.2.4.7,1.1.4.8,1.1.8-.9-.1-1.1.9.6.2,1.1,1.1.5,1.4.8,1,.9.1.8-.4.6.7.8,1.9.8.4.6.1-.8h1.4l.9.4,1.4.3.6,1.5,1.1.2.5-.6.5,2.3,1.7-.2.5-.5,1-.5-1.5-2.1.4-.8.8-.1,1.5-.9.8-1.3,1.5-.2,1.8,1,.6,1.2.9.2-.9,1,.6,2.1,1.1,1,.6-1.8,1.1.3.7-1.1-.7-2.2.4-.5-1.3-1.1-1.1-1.1-1.5-.7-2-.1.1-.4-2-.2-1.3,1.1-2.2.8-1.6.9-1.8.3-.9-.9-.4.4-1.4-.2.1-.8-1.2-1.4-1.6-1.6-1.3-1.5L197,253l-.5-.6-.1-1,.8-.9-.1-1,.4-1.6.6-.4.1-1.7-.1-1,.3-1.6.5-1.5.9-1.3-.2-1.4.3-.8.3-.4-.8-1-1.2-.6-.9-.8-1-.7-.5-.1-1.6-.5-.8.4-1,.1-.8-.2-1.1-.2-.5.4h-.8l-1.6.1-1.6-.4-.6.2-.3-.3-1,.1-.8.6-.4-.2-.9-.5-.4.6-1.1-.7.8-1.3.7-.1.8-1,.6-1.9-.2-.4.6-1.4-.2-.6.8-1.6.2-1H184l.1-.6.7-.1.8,1,1.3-2.9.8-1.6-.6-.6,1.1-2.3,2.2-2.2.4-1.8-.8-.8-2.1.4-3.1-.2-3.9.9-2.5,1-.8,1.1-.8,3.2-1.1,2.2-2.4,1.5-2.3.6-2.8.7-2.7.4-3.2,1.1-1.2-1.6-3.6-1-1.1-1.8-.5-2.2-1.9-2.8-.2-2.9-.8-1.9-.2-2.1.7-1.8,1.1-5,1.1-2.7,2-3.4-1.4.1-2.3-.8-2.5-1.2-.6-1.8-.1-2.6-1.6-2.1-.6-2.2-1-2.6-2-1.5-2.8.1-3,2.9-2.5-1.1-1.5-1.1-.2-2.1-.5-1.9-1.5-1.6-1.3-1.2-.8-1.4h-5.9l-.5,1.6h-9.5l-6.9-2.6-4.4-1.8.6-.8-4.5.4-4,.3.1,3.4.5,3,.4,2.5.5,2.4,1.6,1,1.8,2.7-.6,1.7L99,189.7l-1.3-.2-.5.1,1.4,2.2,1.9.9.6,1,.6-.5,1.9,1.6,1.3,1.2.1,2.1-.8,2.8,1.6.9,2.2,1.8,1.8,2.2.4,2.3h.6l1.8-1.4.2-.7-.9-1.7-1-1.7-1.6-.1.2-2-.6-1.8-.6-1.6-.2-3.5-1.7-1.9-.3-1.4-.8-.9v-2.5l-.6.1-.1-1.3-.4-.2-.2-.9-1.8-2.6-.6-1.5.6-2.9.1-1.8,1.1-1.5,1.5,1,1.2-.2,2,1.5-.5,1.5.2,2.9.9,2.8-.2,1.2,1.1,1.9,1.4,1.9,1.8.4.1,2.6,1.6,1.9,1.5.9-1.1,2.3.4.9,2.6,1.5,1.2,2.4,2.9,2.9,2.4,3.8.8,1.9v1.4l.9,1.7-.2,1.3-1,1,.2,1.1-1.2.4.5,1.9,1.4,2.4,3.4,2.2,1.2,1.7,3.4,1.2,2,.2.7,1,2.7,1.8,3.7,1.8,2.6.5,3,1.7,2.6.7,2.3,1,1.8-.4,3-1.4,2-.3,2.8,1,1.6,1.2,3.5,4.1,1.8,1.5,1.5.8,2.2.1,1.8.6.9.8,1.9.2,1.4.8,1.3.4H183l.4-.9,1.1.4.5,1.2,1.1-.2-1.1.2-.3.2-.5-.6-.4.6,1.6,1.7,1.4,1.2.7,1.2,1.6,1.5,1.1,1.2-1,.7Z"/></g><g id="Europe"><path id="Albania" class="cls-5" d="M559.1,133.3l.2.7.9-.4.8,1,.8.4.4,1.4-.3,1.3.6,1.6,1.5.9.1,1-1.1.5-.1,1.2-1.4,1.8-.6-.2-.1-.8-2-1.3-.4-1.8.1-2.6.3-1.1-.6-.6-.3-1.2,1.2-1.8Z"/><path id="Austria" class="cls-5" d="M548.2,111.5l-.2.5.4,1.2-.1,1.5h-1.8l.7.8-.8,2.4-.6.6H543l-1.5.9-2.6-.3-4.6-1-.8-1.2-3.1.6-.3.7-2-.5-1.6-.1-1.5-.7.4-.9-.1-.6.9-.2,1.7,1,.4-1,2.8.2,2.2-.6,1.5.1,1.1.8.2-.6-.6-2.4,1.1-.5,1-1.7,2.4,1.2,1.6-1.5,1.1-.3,2.5,1.1,1.5-.2,1.5.7Z"/><path id="Belarus" class="cls-5" d="M514,103.4l-.2,2.5-.8.1-.3,2.1-2.8-1.7-1.6.3-2.2-1.7-1.5-1.5-1.4-.1-.5-1.3,2.5-.7,2.3.3,2.8-.8,2,1.6,1.7.9Z"/><path id="Bulgaria" class="cls-5" d="M587.3,129.5l-1.5,1.5-.8,2.6,1.3,2.1-2.9-.5-3.2,1.2.2,1.9-2.9.4-2.5-1.4-2.5,1.1-2.4-.1-.5-2.5-1.8-1.2.4-.5-.4-.5.4-1.2,1.1-1.2-1.8-1.6-.5-1.4.7-.8,1.1,1.5,1.2-.2,2.5.5,4.8.2,1.5-.9,3.7-.9L585,129l2.3.5Z"/><path id="Bosnia" class="cls-5" d="M556,125.2l1.2-.1-.7,1.6,1.7,1.5-.3,1.7-.7.2-.6.4-1,.9-.2,2.1-3-1.4-1.3-1.6-1.3-.8-1.6-1.4-.8-1.1-1.7-1.8.5-1.5,1.3.9.6-.8,1.5-.1,2.8.6,2.2-.1,1.4.8Z"/><path id="Belarus-2" data-name="Belarus" class="cls-5" d="M592.9,94.9l-2.5-.1-.5.4.9,1.2,1.3,2.4-2.6.2-.8.8.2,1.8-1.3-.4-2.7.2-1-.9-1.1.6-1.2-.5-2.5-.1-3.6-.9-3.1-.3-2.4.1-1.5.9-1.3.3-.3-1.6-1.2-1.6,1.8-.8-.2-1.4-1.1-1.4-.4-1.6h3l3-1.4.3-2,2.3-1.2-.6-1.6,1.7-.6,2.9-1.4,3.3.9.6.9,1.5-.4,3,.8.7,1.7-.4.9,2.4,2.4,1.3.6v.6l2.2.6,1.1.9-1.2,1Z"/><path id="Switzerland" class="cls-5" d="M525.3,115.4l.1.6-.4.9,1.5.7,1.6.1-.2,1.5-1.3.6-2.4-.5-.6,1.5-1.5.1-.6-.6-1.7,1.3-1.6.2-1.4-.8-1.1-1.6-1.5.6v-1.7l2.3-2.1-.1-.9,1.5.4.8-.6h2.6l.6-.8,3.4,1.1Z"/><path id="Czech" class="cls-5" d="M541.3,102.3l1.6,1.2,2.3.3-.1,1,1.8.8.4-.9,2.2.4.4,1.2,2.3.2,1.6,1.8h-.9l-.4.6-.7.2-.1.8-.6.2-.1.4-1,.4-1.4-.1-.4.8-1.5-.7-1.5.2-2.5-1.1-1.1.3-1.6,1.5-2.4-1.2-1.9-1.5-1.6-.9-.4-1.6-.6-1.1,2.2-.8,1.1-1,2.2-.7.7-.7.8.4,1.2-.4Z"/><path id="Germany" class="cls-5" d="M537.6,92.7l.9,1.8-.8,1,1.2,1.2.9,1.9-.1,1.3,1.5,2.3-1.4.4-.8-.4-.7.7-2.1.7-1.1.9-2.1.8.6,1.1.4,1.6,1.6.9,1.9,1.5-1,1.7-1.1.5.6,2.4-.2.6-1.1-.8-1.5-.1-2.2.6-2.8-.2-.4,1-1.7-1-.9.2-3.5-1.1-.6.8h-2.7l.2-2.6,1.5-2.5-4.5-.7-1.5-.9.1-1.6-.6-.8.2-2.5-.7-3.8h1.8l.8-1.4.6-3.3-.6-1.2.5-.8,2.5-.2.6.8,2-1.8-.8-1.4-.3-2,2.3.5,1.8-.5.2,1.4,3.1.8.1,1.3,3-.7,1.6-.9,3.4,1.5,1.9,1Z"/><path id="Denmark" class="cls-5" d="M532.7,86.1,531.2,89l-3.3-2-.6-1.5,4.3-1.2Z"/><path id="Denmark-2" data-name="Denmark" class="cls-5" d="M524.6,88.4l-1.8.5-2.3-.5-1.3-2-.2-3.6.4-1,.8-1.1,2.5-.2,1-1,2.3-1v1.8l-.8,1.2.4.9,1.6.5-.6,1.4-.9-.4-2,2.5.9,2Z"/><path id="Estonia" class="cls-5" d="M575.3,72.6l.6.6-1.6,2,1.5,3.3-1,1.1-2.4-.1-2.8-1.3-1.3-.4-2.4.6-.1-2.1-.9.5-2.1-1.2-.6-2,3.5-1,3.5-.5,3.2.5Z"/><path id="Finland" class="cls-5" d="M569.3,40.6l.3,2.2,4.6,2.2-1.8,2.5,4.1,3.7L575.4,54l3.1,2.5-.6,2.2,4.7,2.3-.6,1.7-2.1,2-5,4.3-5,.3-4.8,1.2-4.5.8-2-1.9-3-1.1.1-3.4-1.9-3,1-2,2.1-2,5.5-3.7,1.6-.7-.6-1.4-4.1-1.5-1.1-1.3-1.1-5-4.5-2.2-3.8-1.6,1.4-.8,3.2,1.6,3.3-.1,3,.8,2.1-1.4.7-2.3,3.7-1.1,3.7,1.2-.6,2.2Z"/><path id="England" class="cls-5" d="M476.3,92.3l-2.2-.7-1.9.1.8-1.9-.6-1.9,2.5-.2,3.1,2.2-1.7,2.4Z"/><path id="England-2" data-name="England" class="cls-5" d="M486.3,75.4l-3.2,3.8,3-.5h3.2l-.8,2.9-2.7,3.2,3.1.2.2.4,2.6,4.2,2,.6,1.8,4.1.9,1.4,3.7.6-.4,2.4-1.5,1.1,1.2,1.9-2.8,1.9-4.1-.1-5.3,1.1-1.4-.8-2.1,1.7-2.8-.4-2.3,1.4-1.6-.7,4.6-3.8,2.8-.8-4.8-.6-.8-1.5L482,98l-1.6-1.9.6-2.4,4.5.4L486,92l-2-2.2-.1-.1-3.6-.6-.7-.9,1.1-1.6-1-1-1.6,1.7-.1-3.5L476.6,82l1.2-3.6,2.4-2.8,2.3.2,3.8-.4Z"/><path id="Greece" class="cls-5" d="M574.7,159.5l2,1.3,2.6-.2,2.5.2v.7l1.8-.5-.3,1.1-4.8.3-.1-.6-4.2-.8Z"/><path id="Greece-2" data-name="Greece" class="cls-5" d="M580.5,140.3l-2-.1-1.7-.4-3.9.9,2.5,2.1-1.6.6h-1.9l-2-1.9-.6.8,1,2.2,1.8,1.8-1.2.8,2,1.7,1.8,1.1.2,2.1-3.2-1,1.1,1.9-2.1.4,1.6,3.4-2.2.1-2.9-1.6-1.5-3-.8-2.5-1.5-1.7-1.9-2.2-.3-1.1,1.4-1.8.1-1.2,1.1-.5-.1-1,2.2-.3,1.1-.8,1.8.1.5-.6.6-.1,2.4.1,2.5-1.1,2.5,1.4,2.9-.4-.2-1.9,1.7,1L581,140l-.5.3Z"/><path id="Croatia" class="cls-5" d="M555,121.3l.9,1.5,1.1,1.1-1.1,1.4-1.5-.8-2.2.1-2.8-.6-1.5.1-.6.8L546,124l-.5,1.5,1.7,1.8.8,1.1,1.6,1.4,1.3.8,1.3,1.6,3,1.4-.3.6-3.2-1.4-2-1.4-3-1.1-3-2.7.6-.3-1.6-1.6-.2-1.2-2.1-.6-.9,1.6-1-1.2V123l.1-.1,2.3.1.5-.6,1.1.6,1.3.1-.1-1,1.1-.4.2-1.5,2.5-1,1,.5,2.6,1.6,2.7.7,1.2-.7Z"/><path id="Hungary" class="cls-5" d="M564.3,112.1l1.9,1,.3,1-1.8.8-1.2,2.5-1.6,2.5-2.5.7-2-.2-2.3.9-1.1.6-2.7-.7-2.5-1.6-1-.5-.8-1.2-.5-.1.8-2.4-.7-.8h1.8l.1-1.5,1.7,1,1.2.4,2.6-.4.2-.8,1.2-.1,1.5-.5.4.2,1.5-.5.6-.8,1-.2,3.5,1.1.4-.4Z"/><path id="Ireland" class="cls-5" d="M476.3,92.3l.4,2.6-2.5,3.2-5.5,2.1-4.3-.5,2.7-3.8-1.3-3.6,4.2-2.8,2.3-1.6.6,1.9-.7,1.8,1.9-.1,2.2.8Z"/><path id="Italy" class="cls-5" d="M546.6,150l-1.1,3,.6,1.1-.6,1.9-2.7-1.4-1.7-.4-4.7-1.9.3-1.9,3.9.4,3.4-.4,2.6-.4Z"/><path id="Italy-2" data-name="Italy" class="cls-5" d="M525.2,138.8l2.1,2.6-.3,5-1.5-.2-1.3,1.2-1.3-1-.3-4.5-.8-2.1,1.8.2Z"/><path id="Italy-3" data-name="Italy" class="cls-5" d="M538.9,119.1l-.3,1.8.9,1.6-2.6-.6-2.5,1.4.2,1.8-.3,1.1,1.2,1.9,3.2,1.9,1.8,3.1,3.8,3,2.5-.1.9.8-.9.8,3,1.4,2.5,1.1,3,2,.4.6-.5,1.4-2-1.8-2.9-.6-1.2,2.4,2.5,1.4-.3,1.9-1.3.2-1.6,3.2-1.4.3-.1-1.2.6-2,.7-.8-1.5-2.2-1.1-1.9-1.4-.5-1.1-1.6-2.1-.7-1.5-1.5-2.3-.1-2.7-1.6-3.1-2.5-2.3-2.1-1.2-3.7-1.6-.4-2.7-1.2-1.5.5-1.8,1.8-1.3.2.3-1.6-1.8-.5-1-2.9,1.1-1.1-1-1.4.1-1.1,1.4.8,1.6-.2,1.7-1.3.6.6,1.5-.1.6-1.5,2.4.5,1.3-.6.2-1.5,2,.5.3-.7,3.1-.6.8,1.2,4.7,1Z"/><path id="Lithuania" class="cls-5" d="M573.7,86.1l.6,1.6L572,88.9l-.3,2-3,1.4h-3l-.9-1.1-1.6-.4-.4-.9.1-1-1.4-.5-3.2-.6-1.1-3,3.2-1.1,5,.2,2.8-.4.6.7,1.6.2,3.3,1.7Z"/><path id="Luxemburg" class="cls-5" d="M514.3,108.3h-.9l-.7-.3.3-2.1.8-.1.6.8-.1,1.7Z"/><path id="Latvia" class="cls-5" d="M574.8,79.6l1.6.8.6,1.7,1.3,2.1-2.9,1.4-1.7.6-3.2-1.7-1.6-.2-.6-.7-2.8.4-5-.2-3.2,1-.3-2.6,1.1-2.2,2.6-1.1,2.8,2.6,2.3-.1.1-2.7,2.4-.6,1.3.4,2.8,1.3,2.4-.2Z"/><path id="Moldova" class="cls-5" d="M585.2,122.9l-.8-1.7.1-1.6-.4-1.6-2.1-2.2-1.3-1.5-1.1-1.1-1-.4.7-.5,2-.4,2.5,1.1,1.3.2,1.6,1-.1,1.2,1.3.6.7,1.5,1.3.9-.1.6.6.4-.8.3-1.9-.1-.4-.5-.6.3.4.6-.7,1.2-.4,1.2Z"/><path id="Macedonia" class="cls-5" d="M570.2,138.4l-.6.1-.5.6-1.8-.1-1.1.8-2.2.3-1.5-.9-.6-1.6.3-1.3.4.1.1-.8,1.8-.6.8-.2,1.1-.2,1.5-.1,1.8,1.2Z"/><path id="Montenegro" class="cls-5" d="M560.8,132.8l-.5.8-.9.4-.2-.7-1.2,1.8.3,1.2-.7-.3-1.1-1.2L555,134l.3-.6.2-2.1,1-.9.6-.4.9.6.6.5,1.1.4,1.3.8-.2.5Z"/><path id="Romania" class="cls-5" d="M578.6,112.8l1,.4,1.1,1.1,1.3,1.5,2.1,2.2.4,1.6-.1,1.6.8,1.7,1.5.7,1.5-.6,1.5.6.3,1-1.5.8-1-.4-.3,4.5-2-.4-2.5-1.4-3.7.9-1.5.9-4.8-.2-2.5-.5-1.2.2-1.1-1.5-.6-.6.6-.6-.8-.4-1,.8-2-1.1-.4-1.5-2-.8-.5-1.2-1.8-1.4,2.5-.7,1.6-2.5,1.2-2.5,1.8-.8,1.3-.8,2,.4h2l1.6.9,1-.6,2.3-.4.6-.9Z"/><path id="Serbia" class="cls-5" d="M568,127.5l-.7.8.5,1.4,1.8,1.6-1.1,1.2-.4,1.2.4.5-.4.5-1.5.1-1.1.2-.2-.3.4-.4.2-.9-.4.1-.7-.7-.6-.2-.5-.6-.6-.2-.5-.5-.6.2-.3,1.2-.8.2.2-.3-1.3-.8-1.1-.4-.6-.5-.9-.6.7-.2.3-1.7-1.7-1.5.7-1.6-1.2.1,1.1-1.4-1.1-1.1-.9-1.5,2.3-.9,2,.2,1.9,1.4.5,1.2,2,.8.5,1.5,2,1.1,1-.8.8.4-.6.6.5.6Z"/><path id="Slovakia" class="cls-5" d="M565.5,109.6l-.8,1-.4,1.5-.6.4-3.5-1.1-1,.2-.6.9-1.5.5-.4-.2-1.5.5-1.2.1-.2.8-2.6.4-1.2-.4-1.7-1-.4-1.2.2-.5.4-.8,1.4.1,1-.4.1-.4.6-.2.1-.8.7-.2.4-.6h.9l.2.2,1.2-.5,1.7,1.3,1.8-.8,1.5.4,2.2-.5,3.2,1.3Z"/><path id="Slovenia" class="cls-5" d="M547.6,119.1l-2.5,1-.2,1.5-1.1.4.1,1-1.3-.1-1.1-.6-.5.6-2.3-.1.7-.3-.9-1.6.3-1.8,2.6.3,1.5-.9h2.8l.6-.6.5.1.8,1.1Z"/><path id="Sweeden" class="cls-5" d="M559.2,50.5l-4.4.9-2.2,2.3.8,2.1-3.9,2.6-4.9,2.9-1.3,4.8,2.3,2.4,3,1.9-2.1,3.9-2.9.8-.4,5.9-1.3,3.4-3.6-.4-1.4,2.8-3.5.2-1.2-3.3-2.8-4.1-2.7-4.9,1.1-2,2.2-2.3.5-4-2-1.7-.6-4.5,1.5-3.2,2.7.1.8-1.3-1.1-1.2,3.6-4.6,2.2-3.6,1.5-2.3h2.5l.4-1.8,5,.5V40.7l1.6-.1,3.8,1.6,4.5,2.2,1.1,5,1.2,1.1Z"/><path id="Turcia" class="cls-5" d="M580.5,140.3l.8-.4.7-2.4-1.7-1,3.2-1.2,2.9.5.6,1.5,3,1.2-.4.9-3.9.2-1.3,1.2-2.5,2-1.3-1.7Z"/><path id="Ukraine" class="cls-5" d="M602.8,101.9l1.5,1.6.1.7,4.2,1.3,2.3-.6,2.3,1.7,1.8-.1,4.8,1.2.3,1.1-.8,1.9,1.1,2.1-.2,1.2-3,.2-1.4,1.1.2,1.6-2.5.3-1.9,1.2-2.9.2-2.5,1.4.6,2.3,1.8.9,3.2-.2-.4,1.4-3.4.6-4,2.1-2-.8.4-1.7-3.7-1.1.4-.7,3-1.2-1.1-.8-5.1-.9-.5-1.4-2.8.5-.8,2.1-2.1,2.7-1.5-.6-1.5.6-1.5-.7.8-.4.4-1.2.7-1.2-.4-.6.6-.3.4.5,1.9.1.8-.3-.6-.4.1-.6-1.3-.9-.7-1.5-1.3-.6.1-1.2-1.6-1-1.3-.2-2.5-1.1-2,.4-.7.5h-1.4l-.6.9-2.3.4-1,.6-1.6-.9h-2l-2-.4-1.3.8-.3-1-1.9-1,.4-1.5.8-1,.7.2-1-1.6,2.4-3.1,1.5-.4.2-1-2-3.5,1.5-.2,1.5-.9,2.4-.1,3.1.3,3.6.9,2.5.1,1.2.5,1.1-.6,1,.9,2.7-.2,1.3.4-.2-1.8.8-.8,2.6-.2,1.1.1.6-.8,1,.2,3.1-.4,2.4,2.1-.6.8.5,1.1,2.5.2-.1-.3Z"/><path id="Kosovo" class="cls-5" d="M565.3,134.9l-.8.2-1.8.6-.1.8-.4-.1-.4-1.4-.8-.4-.8-1,.5-.8.8-.2.3-1.2.6-.2.5.5.6.2.5.6.6.2.7.7.4-.1-.2.9-.4.4.2.3Z"/><path id="Holland" class="cls-5" d="M514,103.4l-1.8-.9-2-1.6-2.8.8-2.3-.3,1.6-1,2.5-5.3,4.1-1.5,2.5.1.6,1.2-.6,3.3-.6,1.4h-1.8Z"/><path id="Rusia" class="cls-5" d="M563.3,90.7l-5.5.1-3.7-.4.4-1.5,4-1.2,3.2.6,1.4.5-.1,1,.3.9Z"/><path id="Portugal" class="cls-5" d="M470.1,154.3l-1.4.9-1.8-.5-1.7.4.6-2.9-.2-2.3-1.5-.4-.7-1.4.3-2.5,1.4-1.4.3-1.5.8-2.2v-1.6l-.6-1.4-.1-1.3,1.2-.9,1.4-.5.8,1.8h1.9l.6-.5,2,.1.8,1.9-1.5,1-.2,2.9-.5.5-.2,1.8-1.5.3,1.3,2.2-1,2.5,1.1,1.1-.5,1-1.3,1.4.2,1.5Z"/><path id="Spain" class="cls-5" d="M488.8,130.6l1.3,1.4,6,1.7,1.2-.8,3.7,1.7,3.7-.5.2,2.2-3.1,2.5-4.2.8-.3,1.2-2,2.1-1.3,3,1.3,2.2-1.9,1.6-.8,2.5-2.5.8-2.3,2.9-4.3.1-3.2-.1-2.1,1.3-1.4,1.5-1.6-.3-1.2-1.3-.9-2.1-3.1-.6-.2-1.3,1.3-1.4.5-1-1.1-1.1,1-2.5-1.3-2.3,1.5-.3.2-1.8.5-.5.2-2.9,1.5-1-.8-1.9-2-.1-.6.5h-1.9L468,135l-1.4.5-1.2.9.3-2.6-1.3-1.6,4.7-2.7,3.9.6h4.4l3.4.6,2.7-.2,5.3.1Z"/><path id="France" class="cls-5" d="M526.1,135.3l-1,2.9-1.5-.8-.8-2.5.6-1.4,2-1.4Z"/><path id="France-2" data-name="France" class="cls-5" d="M512.7,108l.7.3h.9l1.5.9,4.5.7-1.5,2.5-.2,2.6-.8.6-1.5-.4.1.9-2.3,2.1v1.7l1.5-.6,1.1,1.6-.1,1.1,1,1.4-1.1,1.1,1,2.9,1.8.5-.3,1.6-2.9,2.1-6.4-1-4.7,1.2-.4,2.2-3.7.5-3.7-1.7-1.2.8-6-1.7-1.3-1.4,1.7-2.2.6-7.4-3.2-3.9-2.3-1.9-4.8-1.4-.2-2.7,4.1-.8,5.2.9-1-4.2,3,1.6,7.2-2.8,1-3,2.7-.8.5,1.3,1.4.1,1.5,1.5,2.2,1.7,1.6-.3,2.8,1.8Z"/></g><g id="Asia-Continent"><path id="asia" class="cls-6" d="M644.2,135.5l-1.3-1.5-3.2-.8-1.8.6-.8-.7-4.8-1.8-4.9-.6-2.9-.6-.2.5,1.4,1.1,1.9.4,2.1,1.4L631,136l-.2,1.6-3.5,2-2.9-.4-3.7.6-5-1.5-6.2-2.6-5.4.1-3.7,1.1-3.5,2.4-6.3-.5-1,2.9-5,.1-3.2,3.6,2.3,1.8-1.3,2.9,2.7,2.1,2.4,3.8,3.7-.1,3.4,2,2.3-.5.6-1.5,3.6.1,3,2,5.1-.4,2-2.2,2.9.9,2-.4-1.1,1.4,1.5,1.7-.6,1.6.7,2.9-1.3,2.7-.8,3.1h1.1l.3-.6.9-.1.2,1.5-.4.6h.1l-.4,1.2-1.3-.5-.4,2.5,1,.4-.8.5-.1,1,1.6-.5.2,1.5-1.1,6,.2.5-.3,1.5-.1,1.4-.3,2.1h1.7l2,2.6,2.4,3,1.6,2.8,1.1.8,1.1,2-.1.8,1.3,2.2,1.9.8,1.8,1.5L632,209v2.2l.6,2.6,2.6,3.6,1.6.6,2.6,2.6,1.2,3,2.1,3.2,2,1.4.3,1.5,1.1,1.1.6,1.6.2,1.6-.4.7.4,1.7-.7.2,1.1,1.5.8,2.8.6,1.1v2l1,2.2,2.5.2,1.1-.5,1.8.1.5-.9,1-.3.7-1,.9-.2,3-.2,2.2-.7,2-1.6,1.1.2,1.6-.2,3-2.6,5.4-1.8,3.4-1.6v-1.3l.6-1.7,4.1-1.2,2.3-1.3,2,.4,1.6-1-.1-1.5,1.3-.9,2.2.1.8-.8.2-1.8,2.1-1.4h1.6l.3-.5-.7-2.5.4-1.9.6-.9,1.6.2,1.1-2.6,1.4-1.2.4-1.1,1.1-2.2-.1-.8-1.3-.5-1.1-1.2-1.8-2.2-2.1-.6-2.6-.5-2.2-1.3-1.9-2.6-.8-3-.8-1.3-1.9,2.3-2.3,2.4-2.1,2.6-2.2-.1-2.9-.1-2.7.6-.2-1.1-.6.2-.8-1.5.5-2.2-.3-2.2-1.1-1.2-.9.4-.7,1.9.5,2.8-.6-.9-.6-1.2-1.1-1-.6-1.2.2-1.3-.4-1.5-2.5-1.6-.8-1.4-1.8-.8-1.7-3.3-1.5-2.9.2-.9-1-1.6,2.1.2,1.1-1.5,2.3,1.2,1.8-.6,3.3,5,2.8,3.6,3.5,1.1,3.8,2.9,4.4,1.2,3.2-1.8,2.6-.6,1.8.6,2.1,4.6,4,.5,3.9.9,6.7,1.1,4.8-.5,5.7-.1,6.3-.7,3.1,2.9,1.4,2.7,2.6.9,2-2.5h7.6l-1.1-3.2-2.2-1.9-.9-2.9-2.5-1.6,3.1-4,4.1.3,2.8-3.9,1.4-3.8,2.5-3.8-.6-2.7,2.4-2.2-3.2-1.8-1.8-2.6-2.1-3.3,1.3-1.6,5.4.9,3.6-.6,2.4-3.2-6-1.5-1.8-3-3-1.8L746,153l-1.1-2.1-.3-1.5-2.3-.9-.9.4-2-3.5.7-.9-.8-.9,2.6-1.8,2-.8,3.7.5.4-2.4,4-.4.6-1.5,4.3-2,.1-.8-1-2.1,1.8-.9-5.5-6.5,5.7-1.4,1.3-.8-.6-6.6,6.8,1.2,1-1.7-1.6-3.6,2.4-.4,1.2-2.5-2.8-2.2-3.8.5-2.1-1.6-2.5-.7-2.6-2.1-2.1-.6-3.9.9-5.3-2.1-.7,1.9-11.5-9.2-5.3-2.8.5-1.2-5.8,3.4-2.8.2-.7-1.9-4.5-1.2-2.7.9-2.8-3.7-5.7-.8-2,1.5-6.9,1.4-1.1.9-10.7,1.2-.9,1.2,3.2,2.5-2.5.9,1,.9-2.2,1.8,5.9,2.5-.1,1.7-4.4-.2-.5,1.1-4.6-1.9-4.9.1-2.7,1.5-4.2-1.4-7.6-2.5-4.8.1-5.1,3.9.4,2.6-4.5-2-1.4,4.1,1.1.7-1.1,2.8,3.3,2.5,2.3-.1,2.7,2.5.1,1.9,1.8.6,2.8-.8,3.2-1.6,3,.9,3.2-.2,1.2,2.3.4,3.6-3-.5-2.6.6.6,2.7-3.2-.4.4,1.2,2,.9,2.3,3.4,4.1,1.3,1,1.3-.4,1.5.4.9,1.6,2.4-.4-2.8,2.4-.9,1.5,2.1,3,2.3-2.6,1.2-3.3-.9.1,3.2,2.2.2-.2,2.5,2.9,1.3.4,3.9,1.2,2.6-.1.9-5,1-4.9-.6-2.7-1.9-3.3-.8-1.7-2.8-.5-1.8,1.1-.9.2-1.3-.1-2.9,2.7-.3-1.2-1-1.6-.2-2.3-2.7-2.2-1.9-1.6,1.5-.4.9-1.5-.3-2.7-2.2-1-.1-2.2-.9Z"/><path id="asia-2" data-name="asia" class="cls-6" d="M779.6,114.7l3.7,3,.9,4.3,1.9,1.7,4.1.6,4.5.5,5,2.3,2.2.4L805,131l3,2.2,3.5-.1,7.2.8,4-.5,3.5.5,6,2.3h3.9l2.1,1.2,2.7-2,4.6-1.3,4.8-.2,3.1-1.2,1.2-2,1.6-1.3-1.2-1.3-1.9-1.4.3-2.4,2,.4,3.8.7,2-2,4-1.4.8-2.5,1.6-1,4.3-.5,2.8.4-.5-1.3-4.5-2.5-3.3-1.2-1.6,1.3-3.5-.5-1.4.4-1.8-1.4-.2-3.7-.4-2.8-3.5.3-2.5-1.2-2.1-.4-2.8,2.6-3.7.6-2.3.9-4.3-.6h-2.9l-3.1-1.9-4.1-1.7-3.4-.5-3.6.5-2.5.7-5.4-1.5-2.3-2.7-4.2-1-3-.4-4.4-1.5-.9,3.7,2.5,2.1-1.5,2.6-5-.9-3.2-.1-3-1.7-3.3-.1-3.3-1.1-3.7,1.7-4.3,3.1-2.9.7,2.1,2.6,3.5,1.9Z"/><path id="asia-3" data-name="asia" class="cls-6" d="M783,259.2l-2.6-2.1-1.2,6.1.9,5.4,1.8,3,3-.9,1.5-1,.3-4-1.9-3.9Z"/><path id="asia-4" data-name="asia" class="cls-6" d="M810.2,188.4l-1.8-.1-2.7-.8-1.7.9-1.6,2.8.3.7,3.4,1.5,2-.6,3,.2,2.8-.1-.3-2.3-1.6-1.2Z"/><path id="asia-5" data-name="asia" class="cls-6" d="M884.2,218.4l-2.1-.1-3.6,1.1-1.4,1.7.6,3.2,3.1,1.2,2.7-1.8.5-2.2,1.2-1.6Z"/><path id="asia-6" data-name="asia" class="cls-6" d="M945.4,306.1l.6,1.6,2.4.7,1.4-1.3-.8-1.2Z"/><path id="asia-7" data-name="asia" class="cls-6" d="M957.5,304.7l-4.4.1-.9,2.1,2.4.1,2.1-.2,3,.3,2.9,1.6-1.2-2.9Z"/><path id="asia-8" data-name="asia" class="cls-6" d="M938.8,290.6l-4.1.2-4.5-.5-2.8-1.1-3.1,2.8-.6,1.5-1.9,5.7-.6,3-1.6,2.5,1,2.6h1.5l.4,3.7-1.2,3.4,1.5,1.1,2.3-.5.1-5.4-.1-4.5,2.5-1.1-.5,3.7,2.5,2.2-.5,1.5.8,1,3.6-1.4-1.9,3,1.3,1.4,2-1.2.2-2.4-3.1-4.4.7-1.3-3.2-4.8,3.2-1.4,1.6-2.3,1.6.6.3-1.7-6.7,1.2-1.9,1.8-3.2-3.4.5-2.9,3.1-.5,6-.2,3.4.7,2.7-.7,2.9-3.7-.7-.9Z"/><path id="asia-9" data-name="asia" class="cls-6" d="M954.2,297l-1.5-2,.6-2.3,1.8.5.2-3.3-.4-1.6-2.1-.3-.3-2.1-1.1,1.4-.7,3,1.1,4.8,1.4,2.4Z"/><path id="asia-10" data-name="asia" class="cls-6" d="M920.6,290.7l-4-3.5.6-1.7-2.8-3.5,1.9-3.5,2.5-1.3-.7-1.8,2.4-.2.1-1.5-3-1.1-2.4-1-.3-1.7L913,268h-1.5l-1.6,3-2.6,2.6-2.9,2.1-1.4,1.4-1.6,2.3-2.4,3-4.3.8-1.5.7-.7,3.2-2.7.7-2.6-1.3-2.1,2.6-.4,3.5.5,3.3,1.7,3.2,1.8,1,.4,5.1,2.9.4,2.4-.2,1.2,1.9,4.3-1.5,1.7,1.3,2.6.2,1.3,2.3,4.2-1.7.4,1.4,1.6-5.8.2-3.8,3.5-2.5-.1-3.5,1.1-2.5Z"/><path id="asia-11" data-name="asia" class="cls-6" d="M870.1,302.9l-1.2-2-.6-2.7-1.2-.1-2.1-1.3,1.4-3.1-2.7-1.7-2.1-3.2-3.1-2.6h-3.6l-3.5-4.1-2-1.5-2.9-2.6-3.3-3.7-5.6-.7-2.3-.2.4,2,3.9,4.1,2.8,2.1,2,3.3,3.2,2.3,1.4,3,1.1,3.2,3.1,3.2,2.6,5.3,1.7,2.8,2.6,3,1.5,2.3,4.4,3.1,2.9,3.1h3.9l.4-5.8,1.1-4.7-1.6-2.4Z"/><path id="asia-12" data-name="asia" class="cls-6" d="M950.8,169l.8-2.3-1-1.3-2.9-.9-.6,1.6-2.2-.4-.8,2.3.8,1.7,2.7,1.1-.1-2.2,1.3-.9Z"/><path id="asia-13" data-name="asia" class="cls-6" d="M966.5,157.1l-.4-3-2.3-3.9.9-3.8-1.8-3-5.2-5.2-3,.7.1,2.3,3.2,4.3.7,4.5-1.1,1.5-2.9,3.8-3.2-1.9v6.7l-3.9-.7-6.2,1.1-1.2,2.6-2.5,1.9-.7,2.4-2.7,1.2,2.5,2.6,2.6,1,.6,3.4,2.3,1.5,1.5-1.6-.5-6.4-4.6-2.7,3.9-.2,3.2-1.7,5.4-.8,1.5,2.8,3,1.5,2.8-4.4,5.8-.2,3.4-1.8.4-2.6Z"/><path id="asia-14" data-name="asia" class="cls-6" d="M952.5,130.7l-3.2.2.3,2.9,3,3.7,3.6-.1-1-4,6.9,2.5.2-3.7,4.1-1-3.8-4.2-1.2,1.5-2.8-.7-3.3-1.3-6.7-3.8,1.2,2.8Z"/><path id="asia-15" data-name="asia" class="cls-6" d="M799.5,189l-4.1-.4-4.1-.8-3.2-1.7-2.8-.7-1.6-1.8-2.1-.6-4-2.4-3-1.2-1.2.9-1.8,1.7-.6,3.6,3.7,1.4,3.7,1.8,4.9,2.1,4.8.5,2.4,1.9,2.7.4,4.4.8h2.9l.1-1.5-1-2.4Z"/><path id="asia-16" data-name="asia" class="cls-6" d="M945.5,270.4l1-3.4-.4-2.1-.6-2.5-.3-1.4-.5-1.9-3.1-1.8.5,2.9-2.5.1-.4,1.7-2.7,1-1.4-1.7-1.8,1.4-2.1,1.1L930,267l.7,1.1,2.5-2.1,1.6.1,1-1.5,2.4,1.8-.9,1.7,1.2,2.8,4.3,2.2.9-1.8-1.3-2.7,1.5-2Z"/><path id="asia-17" data-name="asia" class="cls-6" d="M934.3,259l.9-2.4,1.1-1.3v-3.5l-2.2,3.6.3-2.5-2,.2-.1,2.3-.8,1.1-.7,1,2.5,2.6Z"/><path id="asia-18" data-name="asia" class="cls-6" d="M912.7,262.6l4.5-3.6,1.6-2.6,2.2-2.1-1-3.1-1.5,3.8-1.8,2.6-2.5,2.3Z"/><path id="asia-19" data-name="asia" class="cls-6" d="M929.3,254.7l2.1-1.1,1.5-1.6-.2-1.5h-2.2l-2.2-1.2.7,1.8V253Z"/><path id="asia-20" data-name="asia" class="cls-6" d="M940.9,248.2l-1.1-1.4h-3.4l2.5,2.8.2,1.5-2.1-.3.8,2.3,1.1.1.4,2.7,1.6-.8-1.1-2.3-.2-1.3,2.8,1Z"/><path id="asia-21" data-name="asia" class="cls-6" d="M924.2,246.2l1.7,1.9.5-3.3-1.4-1.3-3-.1Z"/><path id="asia-22" data-name="asia" class="cls-6" d="M929.9,240.1l-1.5.4-1.9-.4-1.3-3,.1-3.1,1.8-1.2.4-3.1-1.6-2.7.2-1.6-.5-.9-.9,1-2.4-1.2h-2.1l-.5,3.4.7,6-1.7-1.3.7,3.6.8,1.7,2.1,2.1.3-1.3,1.2.9-1,.9v1.6l1.9.8,3.2-.6,2.5,2.3.8-1.4,1.5,2,3,1.8.2-1.7-1.3-.9v-2.1Z"/><path id="asia-23" data-name="asia" class="cls-6" d="M909.1,145l.6.6.2,2.1.6.6-.5.5-.1,1.6,1.2.6,1.1.4.4.7.8-.3.1-.7,2,.7,3.9,3.2-2.2.7,3.4,3.8.6,2.9,1.4,2,2.9-.3,1.9-1.6,2.8-.7.3-2-2.2-4.4-2.1-2.4-5.2-4.4-2.8-1.7-1.6-.6.2-.4-.8-1.6.8-1,1.9-.7.5-1.1.2-.6,1.2-.9-1.7-2.6.1-1.3.7-1.3,1.4.3-.9-.7-3.5-2.2v2.1l-4,1.6,1.7,2-2.9-.2-2.2-1.2-.7,2.7-2.5,2-1.3,2.4,2.1,1Z"/><path id="asia-24" data-name="asia" class="cls-6" d="M918.7,208.2l.7-6.1.1-2.3-1.9-1.1-2.1,2.9-1.2,3.7,1,2.8,2.5,3.2Z"/><path id="asia-25" data-name="asia" class="cls-6" d="M880.4,236.5l-2.5-3-3.7-2.4-4-4.9-3.4-3.9.4-2.7,2.3-3.5,4.1-3.2-3.7-1-2-1.5.2-2.2-3.3-.7-2-1.4-2.6,2-3.3.4h-2.8l-1.7.9-1.7.5,1.3,4.4-1.9-.1-.5-.9-.3-1.6-2.4,1.1-1.7-.7-2.8-1.4.5-3.1-2.3-.8-1.6-3.4-3.5.6-.4-4.4,2.6-3.2-.5-3.1-.9-2.9-1.7-.9-1.7-2.2-1.9.3.6,1.4-1.1.7.9,2.3-2.6-.7-3.9,2.6.5,2.2-1.2,3.1.2,1.9-1.1,3.1-2.9-.9.6,3.9-.6,1.3.6,1.6-1.6.9-2.7-6h-1l-.2,2.5-2.3-2,.8-2.1,1.5-.3,1-3.1-2.1-.7-3.2.1-3.4-.6-.8-2.6-1.7-.2-3.1-1.6-.8,2.6,3,2-1.9,1.4-.6,1.3,2.3,1L804,205l1.7,2.8,1,3.1,1.4.4,1.1.4.3-.7,1.7.8.7-2.1-.5-1.6,3.2.2,1.8,2.2,1,1.8.5,1.9,1.3,2,2.9,3,2.1.5-.2,1.4,3.4,4.4,1.2,3.5-.5,4.7,2.2.9,2.1.2,3.7-2.6,2-1.9,2,3.1,1.2,4.8,1.7,4.5,1.7,1.9.1,4.2,1.4,2.2-.8,2.9.5,2.8-.7,3.6-.3,2.3.8,2.1.5-2.2,1.8,1.8,2,2.1.8,1.9,1.4,1.4.9,1.6-.2,2.8,1.3,2,.7,3.1,2.1,2.6.5,1.9,4.3,3,3.5,2.8,2.5-.3V288l-1.4-3.4-1.4-1-.3-2.2-.3-1.3.3-1.7-.4-2.6-1.6-2.5-2.2-2.3-.9-.3-1.9-2-2.2-.4-2.1-2.2-.9-3.2-1.6-3.5-2.4-.1-.4-2.7.9-3.4,1.3-5.5-.1-4.2h3.1l-.2,3,3.1-.1,3.3,1.8,2.2,3.9,1.6,2,3.1.5,2.7,2.1-.7,2.6,1.4,2.4,4.2-3.5,2.7-3.1,3.8-2.5,2.7-2.5-.2-6.6Z"/><path id="asia-26" data-name="asia" class="cls-6" d="M608.2,162.1l-.2-.1-.2.1v-.3l-.2-.3h-.2l-.1.2-.3-.1-.2-.1-.2.2-.2-.1-.4.3h-.4v-.1l-.4-.1v-.3h-.1l-.2.1h-.3l-.1.2-.1.2-.2.1-.3-.2-.1.2.1.1.1.4.2.2.2.4.3.1.3.1.3.1h.3l.3-.2.2.2h.3l.1.1.2-.2.3-.1.3.1.3-.2h.2l.3-.1.1-.2h.2l.1-.1v-.3l.2-.2Z"/></g><g id="South-America-Continent"><path id="south-america" class="cls-7" d="M291.6,497l-2.7-2.7-1.9-1.6-2.4-.5-2.1,1.5.2,2.5-.8,1.6-4.6-1.3-5.4-2.4-2.9-.7,6.2,4,4,1.9,4.7,2,3.4.5,2.7,1.1,2,.3,1.5.1,2-1.1.3-1.4,2.1,1.2,2.8-.2.5-1.7-4.6-.9Z"/><path id="south-america-2" data-name="south-america" class="cls-7" d="M370.4,319.5l-1.2-4.8-1.4-1.2-3-.1-2.8-1.1-4.6-4.2-5.3-3.1-5.4.1-6.9-2-4.2,1.2.6-2.2-1.8-2.1-6-2.3-4.5-1.4-2.7,2.5-.1-3.8-6.4-.6-1-1.1,2.7-3.1-.1-2.6-2-.7-1.9-6.5-.8-2.2-1.2.2-.5-1.5-3.8-3.2-2.5-.9-1.2-.4-3.9-1-2.9.3-.4.7-4.3-.8-1.3-1.3-1.9-1.9h-1.3l-.1-2-2.1-2.4-2.2-1.4-1.4-.9h-1.8l-.5-3-2.6-1.8-2.9-.3-1.1-1.8,3.1-1.1-4.2.1-4.5.2-.1.9-2.1,1.2-2.6-.5-2-1.6-3.8.3h-3.2l-.1-1.2-2.1-2.1-2.6-.1-1-2.7-1.4,1.3.4,1.7-4.5,1.6v2.8l1,1.3-.9,2.8-1.6.2-1.2-3,1.7-2.2.2-1.9-1.1-1.7,2.2-.5.1-.9.8-1.2-.9-1-1.2-.3-1.8,1.9-1.5.8-2.9,1.9-2.8-.3-.3.7-2.3.2-2.1,1.7-.9,3.2-.1,1.2-1.5.4-2.8,2.7-1.8-.1-.5.5.7,2.2-.7,1.1-1.1-.3-.6,1.8,1.4,2.1.5,3.2-.9,1,.7,3.4-.7,2.2,1.2.9-1.4,2-1.5,2.3-1.8.3-.9,1.4.1,1.9-1.3.3.5,1.1-2.5,1.5-2,.8.2,1.5-1.3,2.5-.6,2.3-1.3.6.6,3.4-.7,1.1,2.3,1.7,1.3-1.8.8,1.6L208,307l.4,1.6-1,.8.2,1.4,1.5-.3,1.4.4,1.6,1.9,1.9-1.6.6-2.5,2.2-3.3L221,304l3.8-4,1.1-2.4-.5-2.9.9-.4,2.4,1.8,1.2,1.8,1.6,1,2.2,3.9,2.7.5,1.9-1,1.3.7,2.2-.4,2.8,1.8-2.2,3.9h1l1.9,2-3.3-.2-.5.6-2.9.7-3.9,2.6-.2,1.8-.9,1.3.4,2-2.1,1.1.1,1.6-.9.7,1.6,3.4,2.1,2.3-.6,1.6,2.4.2,1.4,2.1h3.2l2.7-2.2.1,5.7,1.6.4,2.1-.6,3.4,6.1-.7,1.2v2.7l.2,3.2-1.2,1.9.8,1.4-.7,1.3,1.8,3.2-1.8,4-.7,2-1.8.9,1.3,5.3,1,6.2-.1,8.4v7.9l.6,7.3-1.1,4.5,1.3,4.7-.4,3.1,2.1,5.7-.1,5.6-.7,6-.4,6.1-1.4.1,1.5,4.3,2.1,3.6-.7,2.6,1.3,6.9.9,5.3,2.2.5-.6-4.6,2.5,1,1.2,7.7-4.1-1.3,1.2,6.2-1.7,3.2,5.3,1.1-2.2,2.8.1,3.6,3.2,6.2,2.6,2.5.2,2.1,2,2.2,4.8,2.1,4.8,2.5,3.9,1.1h1.2l-1-3.4,2.1-1.3,1.1-.8h2.7l1.3.1-2.9-2-2.6-3.8.5-1.7,2.2-1.4.4-4.3,2.9-2.1-.1-3.3-3.3-.7-4.1-2.7v-2.9l1.8-1.8h3.1v-2l-.7-3.7,1.8-2.4,2.7-1.2-1.6-1.9-1.5,1.2-2.5-1.1-1.6-3.7,1-1,3.5,1.4,3.2-.6,1.6-1.3-1.1-1.9-.1-2.7-1.3-2.3,3.8.4,6.4-.8,4.4-2,2.1-4.9-.2-1.8-2.4-1.6-.2-2.6-4.9-3.2-.2-2,2.5,2.1,2.2-.1,3.5,1.6,1.8-.5,2.6.8,3.4-2.1,1.1-2.4,1.8-2.1.9-3.6,2.1-1.8,2.5-2.9,2.8-6.6,2.2-2.2.5-1.8.2-3.8-.9-2.1.2-2.8,2.6-3.7,3.9-3,3.7-1.2,2.4-1.7,5.3-1.4h3.8l.7-2.3,2.7-1.5.3-4,3.3-4.8.3-5.1,1.1-1.5.1-2.5.7-5.8-.5-7.1.8-2.7.9-.1,2.5-3.3,2.1-4.3,4.9-5.2,1.7-2.4,1.3-6.3Z"/></g><g id="Australia-Continent"><path id="australia" class="cls-8" d="M922.1,329.4l-3.4.8,4.5,2.6,1.5-.1.3-1-1.1-1.1Z"/><path id="australia-2" data-name="australia" class="cls-8" d="M918.9,325.4l-2.3.2-1.2-1-1,1.4h-2l-1.4,2.2h1.9l2.5-.5,4.2-.8Z"/><path id="australia-3" data-name="australia" class="cls-8" d="M927.6,326.3l-2.2-1.1-2.9.7-.1,1.5,4.7.4,5.4-1,.7-2.2L930,326Z"/><path id="australia-4" data-name="australia" class="cls-8" d="M898,322.8l-1.2-2.5-6.5-1.8-.8,1.6-6.9-.5-.3-1.2-1.6-.3-2.7-1.5-4.3-.2L871,320l3.2.2.6,1.6,6.4,1.6,1.5-.5,2.6.4,4,1.5,3.3.6,3.7.3,3.2-.1,3.8,1.5,4.2-1.4-4.2-2.2Z"/><path id="australia-5" data-name="australia" class="cls-8" d="M974.5,316l-.7,1.3.1,2.8,2.1-2.6.1-1.7-.8-1.1Z"/><path id="australia-6" data-name="australia" class="cls-8" d="M1029.4,318h1.9l1.9-.9,2.1-1,.6-1,1.9-.3,1.3-2.3.3-2.1-.7-.6h-2.2l.3,2.3-2.1,1.3-1.2,1.3-2,.3-.2-2-.5.1-.7,1.8-2,.3-3.1-.6-.4,1.2,1.9,1Z"/><path id="australia-7" data-name="australia" class="cls-8" d="M1028.9,334.3l2.4-.3.6-1.1-3.6-1.6,1.1-.7-2.7-.6.3-1.6-2,.1-1.9-4-3-2.5-.6-2.5,3.3-.4-.7-2-5.8-2.4-.3-2.2-1.9-1.9-2.4-1.9-6.5-2.2-6-2.6-3.9-.7-2.6-1.3-3-1.3h-3.2l-4.1,2.2-3.2,4-3.6-2.2-.8-6.1-.6-1.5-5.7-1.5-1.8,1.2-4.8.9,1.4,1.9,3.2.7,1.4,2.2h5.2l.3,1h-2.6l-3.9,1.3,2.7,1.9-.1,1.7.7,1.3,1.4-.3,1.1-1.9L978,311l2.9.2,6.7,3.3,1.5,3.1.6,4.1-2.3,1.1-1.8,3,4.6-.1.9-1.1,3.5.8,2.9,3.1,3.7.1,1.9.7,2.9-1.3-.1-2.8,2.3-1.3,3.1-1,4.5,1.6,1.5,3.3,1.8,2.1,2.5,2.4,3.6.6,2.9.4Z"/><path id="australia-8" data-name="australia" class="cls-8" d="M1038.2,307.2l1.5,1.2.7,1.4.6,2.3,1.1-1-.2-2-1.4-1.2-1.3-1.6-1.4-.9-1.2-.8-1.9-1-1,.8,2.5,1.2Z"/><path id="australia-9" data-name="australia" class="cls-8" d="M946.5,325.8l-2.5.1-3.1.9-.5.8-3.7,1.6-1.8,2.3-.4,1.2.4.5,3.1-.9,2.6-2.8,3.1-1,3.9-1.7,1.4-1-1.4-.5Z"/><path id="australia-10" data-name="australia" class="cls-8" d="M1062.7,448.3l.5-1.6-3.7,1.8-2.2,2.1-1.9.9-3.8,2.8-3.6,1.9-4.4,1.9-3.6,1.5-2.7.7-7.2,3.7-4.1,2.7-.6,1.4,3.2.2,1,1.2,2.9.1,2.5-1.1,4-1.6,5.1-3.8,3-2.4,4-1.4h2.5l.4-1.8,3-1.5,4.4-2.8,2.7-1.7,1.3-1.6.3-1.6-3.5,1.6Z"/><path id="australia-11" data-name="australia" class="cls-8" d="M1088.7,435.8l-3,1.4-2-.3-1.8-1.2,1.5-2.8-.8-1.1-1.9,2.6.3-4,1.3-3.3-2.1-1-.5-2.1-1.4.3-.3,2.7.5,3.3.5,1.6-.5.6-.4,2.6-1.5,2.4-2.7,2.9-3.3,1.3-1.2,1.4,2.4,1.4-.5,2.1-4.4,3.1,1,.5-.3,1,3.7-1.5,3.8-2.5,2.9-2.1,1-.6.9-1.7,1.8-1.1,2.4.1,2.7-2.2,3.3-3.4Z"/></g></g><path id="ZA" class="cls-2" d="M606.1,395.5l-.9,1.6-2,.4-2-2,.1-1.3,1.1-1.4.4-1.1,1.1-.2,1.7.6-.2-1.4.9-4.2-.7-2.7-1.4-5.3-1.6-.3-1.2.5-1.7-.6h-1.4l-5.1,2.8-3.3,2.8-1.3,2.5-1,1.4-1.9.3-.8,1.8-.4,1.2-2.3.8-2.8-.2-1.6-1.1-1.5-.4-1.8.8-1,1.8-1.7,1.1-1.8,1.7-2.5.4-.7-1.4.4-2.3-1.9-3.6-.9-.6-.7,13.9-3.2,1.9-1.8.3-2.1-.7L555,403l-.5-1.6-1.3-1.1-1.8,1.9,2.3,4.9v.1l1.5,3.2,2,3.6-.1,2.9-1.1.7.9,2.5-.2,2.2.4,1,.2-.5,1.4,1.7,1.1.1,1.3,1.4,1.5-.1,2.2-1.4,2.9-.6,3.7-1.5,1.4.2,2.1-.5,3.6.7,1.7-.7,2,.6.6-1.1,1.7-.2,3.7-1.4,2.7-1.8,2.6-2.2,4.2-3.9,2.3-2.8,1.1-1.9,1.6-1.9.7-.5,2.5-1.9,1.1-1.7.6-3.1,1.1-2.8Z"/><path id="US" class="cls-4" d="M213.1,113.6l-3.9,1.2-3,1.5-2.9,1.6-.3.5,3.6-.8,1.3,1.2,2.9-.9,3.1-1.2,3.4-1.2-2,1.9,1.6.5,1.6,1.4,3.2-.8,3.2-.3.2,1.1.9.1.8.1,1,1.5-3,.4h-.1l-2.3-.4-2.8.7-2.3.4-3,2.4-1.9,1.4.2.4,3.5-2.4h.4l-3,2.9-1.8,2.6-1.6,2.1-.4,1.8-.5.9-.4,1,.1,1.9.2.3,1.1-.1,1-.4.9-.5,2.1-1.8,1.1-2.5-.1-2.3.9-1.6,1.6-1.8,1.3-1.3,1.7-.9-.2,1.2,1.4-1.8.8-.4,1.1-1.4,2.4.8L228,124l-.5,1.7-1,1.7-2.4,1.5-.2.9h.6l2.7-1.6,1,.4-.3,2.2-.4,1.5-2.3,2.1-1.1,1.3-1.7,1.4,1.7.8,1.6.2,2.5-.5,2.3-1,1.9-.5,2.9-1.1,3.7-2.2.1-.4.2-1.1,1.7-.5,2.5.2,2.5.3,2.9-1.2.4-1.5-.1-.5,4.3-2.6,1.7-.6,4.9-.1H266l.7-.9,1.1-.2,1.6-.6,1.8-1.7,2-2.9,3.5-2.8.7.9,2.3-.6,1,1.1-1.8,5,1.4,2.1.1,1.2-4,1.8-3.8,1.3-3.8,1.1-2.5,2.2-.8.8-.8,2,.4,1.9,1.3.1.1-1.4.7.8-.6,1.1-2.4.6-1.6-.1-2.6.6-1.5.2-2,.2-3.1,1.1,5.1-.7.7.7-5,1.1h-2.1l.2-.5-1.4,1.1.9.2-1.6,2.7-3.3,2.9.1-1-.7-.2-.8-.9v2l.6.6-.4,1.4-1.5,1.5-2.8,3-.2-.1,1.8-2.6-1.3-1.4.6-3.2-1.2,1.6v2.5l-2-.6L241,151l-1,3.6.9.3v1.3l-.6,3.8-2.9,2.8-3.9,1.1-2.8,2.2-1.8.2-2.1,1.4-.8,1.2-4.4,2.5-2.4,1.8-2.2,2.2-1.2,2.6v2.6l.4,3.2,1,2.6-.3,1.6.8,4.3-.6,2.6-.4,1.5-1.3,2.3-1.2.9-1.6-.5-.2-1.6-1.2-.9-1.3-3.2-1-2.9-.2-1.5,1.3-2.5-.5-2.1-2-3.2-1.2-.6-3.8,1.8-.6-.2-1.3-1.8-1.9-.9-4,.5-2.9-.5-2.7.3-1.6.6.4,1-.4,1.5.5.8-.8.5-1.1-.5-1.4.7-2.5-.1-2.1-2-3.1.5-2.3-.9-2.2.3-3.2.9-3.8,2.8-3.9,1.6-2.3,1.8-1.2,1.7-.6,2.6-.2,1.8.4,1.3-1.4.1L154,196l-2.5-1.2-.6-1.8-.1-2.6-1.6-2.2-.6-2.2-1-2.6-2-1.5-2.8.1-3,2.9-2.5-1.1-1.5-1.1-.2-2.1-.5-1.9-1.5-1.6-1.3-1.2-.8-1.4h-5.9l-.5,1.6h-9.5l-6.9-2.6-4.4-1.8.6-.8-4.5.4-4,.3.2-1.9-1.3-2.2-1.4-.5.1-1.1-1.8-.2-.8-1-3-.4-.6-.6.5-2.1-1.6-3.8-.5-5.2.6-.9-.8-1.2-.9-3.2,1.1-3-.6-2.1,2.5-3.1,1.8-3.2.7-2.9,3.5-3.5,2.5-3.4,2.5-3.4,2.7-5,1.1-3.1.2-1.7.9-.8,3.7,1.3-.6,3.5,1.4-1,1.6-3,1-3h86.5l.8-1.4h1.1l-.6,2,.6.6,2.1.2,2.9.6L207,113l2.8-.5,3.3,1.1Z"/><path id="NO" class="cls-5" d="M575.3,39l-4,1.2-2,.3.5-2.2-3.7-1.2-3.7,1.1-.7,2.3-2.1,1.4-3-.8-3.3.1-3.2-1.7-1.4.8-1.6.1.1,2.1-5-.5-.4,1.8h-2.6l-1.5,2.3-2.2,3.6-3.6,4.6,1.1,1.2-.8,1.3-2.7-.1L528,59.9l.6,4.5,2,1.7-.5,4-2.2,2.3-1.1,2-2.2-2-5.4,4-3.8.8-4.1-1.8-1.1-3.7-1.3-7.9,2.5-2.2,7.1-2.9,5.1-3.5,4.5-4.6,5.6-6.3,4-2.4,6.5-4,5.4-1.4,4.2.2,3.3-2.6,4.7.1,4.4-.6,8.6,2.3-3.1.8Z"/><path id="CH" class="cls-6" d="M898.3,108.3,904,111l3.7,3.4h4.8l1.7-1.4,4.3-1.1.9,3.3-.2,1.4,1.7,3.9.4,3.7-4.3-.7-1.9,1.3,3,3.2,2.5,4.4-1.6.1,1.2,1.9-3.5-2.2v2.1l-4,1.6,1.7,2-2.9-.2-2.2-1.2-.7,2.7-2.5,2-1.3,2.4-4,1.1-1.5,1.8-3,1,.8-1.8-1.5-1.4,1.3-2.6-2.8-1.9-2.2,1.3-2.2,2.6-.9,2.5-3.1.1-.8,1.8,3,2.5,3,.7.9,1.6L895,154l2.4-2.7,3.7,1.5,2.2.1,1.5,1.9-4.2,1.1-.7,2.1-2.4,1.8-.5,2.7,4.4,2,2.9,3.7,3.5,3.5,3.5,2.9,1,2.8-1.8,1.1,1.5,2,2.5,1.1.5,3.1.1,3-1.8.3-1.3,4.1-1.5,5-2.1,4.4-4.1,3.5-4.1,3.2-3.9.4-1.8,1.7-1.5-1.2-1.5,1.8-4.6,2-3.6.5-.5,4-1.9.2-1.4-2.7.6-1.4-5-1.3-1.5.7-3.7-1-2-1.5.2-2.2-3.3-.7-2-1.4-2.6,2-3.3.4h-2.8l-1.7.9-1.7.5,1.3,4.4-1.9-.1-.5-.9-.3-1.6-2.4,1.1-1.7-.7-2.8-1.4.5-3.1-2.3-.8-1.6-3.4-3.5.6-.4-4.4,2.6-3.2-.5-3.1-.9-2.9-1.7-.9-1.7-2.2-1.9.3-3.9-.6.8-1.6-2.3-2.4-2,1.6-3.1-.9-3.4,2.4-2.5,2.8-2.6.5-1.8-1-1.8-.1-2.7-.8-1.7.9-1.6,2.8-1-3-1.9.8-4.1-.4-4.1-.8-3.2-1.7-2.8-.7-1.6-1.8-2.1-.6-4-2.4-3-1.2-1.2.9-5.4-2.7-4-2.3-2-4.2,2.6.6-.4-2-1.9-1.9-.5-3.1-4.8-4.5-6-1.4-1.8-3-3-1.7-1-1.1-1.1-2.1-.3-1.4-2.4-.9-.9.4-2-3.5.7-.9-.7-.9,2.6-1.7,2-.8,3.6.5.4-2.3,4.1-.5.6-1.5,4.4-2,.1-.8-1.1-2.2,1.8-.9-5.5-6.5,5.7-1.5,1.3-.8-.6-6.6,6.8,1.2,1-1.7-1.6-3.6,2.4-.4,1.2-2.4,1.1-.3,2.1,2.6,3.5,1.9,5.2,1.3,3.7,3,.9,4.3,1.9,1.7,4.1.6,4.5.5,5,2.3,2.2.4L805,131l3,2.2,3.5-.1,7.2.8,4-.5,3.5.5,6,2.3h3.9l2.1,1.2,2.7-2,4.6-1.3,4.8-.2,3.1-1.2,1.2-2,1.6-1.3-1.2-1.3-1.9-1.4.3-2.4,2,.4,3.8.7,2-2,4-1.4.8-2.5,1.6-1,4.3-.5,2.8.4-.5-1.3-4.5-2.5-3.3-1.2-1.6,1.3-3.5-.5-1.4.4-1.8-1.4-.2-3.7-.4-2.8,4.7,1.4,2.8-2.3-1.2-1.6-.1-3.8.8-1.2-1.6-2-2.3-.8,1-1.9,3.3-.6,3.9-.1,5.4,1.1,3.8,1.3,4.8,3.6,2.4,1.6,2.9,2.2,3.9,3.6Z"/><path id="IN" class="cls-6" d="M773.4,180.3l-1.8,1.8-.6,3.5,3.7,1.4,3.7,1.8,4.9,2.1,4.9.5,2.4,1.9,2.7.4,4.3.9,2.9-.1.1-1.5-1-2.4-.1-1.6,2-.8.9,3,.3.7,3.5,1.5,2-.6,3,.2,2.8-.1-.3-2.3-1.6-1.2,2.7-.5,2.5-2.8,3.4-2.4,3.1.9,2-1.6,2.3,2.4-.8,1.6,3.8.6.6,1.4-1.1.7.9,2.3-2.7-.6-3.9,2.6.6,2.2-1.2,3.2.2,1.8-1,3.1-2.9-.9.6,3.9-.6,1.3.6,1.6-1.6.9-2.8-6h-.9l-.2,2.5-2.3-2,.8-2.1,1.5-.2,1-3.2-2.2-.6-3.2.1-3.4-.5-.8-2.6-1.7-.2-3.1-1.6-.8,2.6,2.9,2-1.9,1.4-.6,1.4,2.3,1-.2,2.3,1.6,2.8,1,3.1-.3,1.4-2.4-.1-4.2.8.6,2.8-1.5,2.2-4.7,2.6-3.3,4.4-2.4,2.4-3.2,2.5.2,1.7-1.6.9-3,1.4-1.6.2-.8,2.9,1.2,4.9.4,3.1-1.2,3.6.4,6.4-1.8.2-1.5,2.9,1.2,1.3-3.2,1.1-1.1,2.5-1.4,1.1-3.5-3.5-2-5.3-1.6-3.8-1.4-1.8-2.2-3.6-1.3-4.7-.9-2.4-3.7-5.2-2.2-7.4L751,222l-.5-4.6-1.1-3.5-4.9,2.3-2.5-.5-5.1-4.6,1.5-1.4-1.2-1.5-4.5-3.2,2-2.5h7.6l-1.1-3.2-2.2-1.9-.9-2.9-2.5-1.6,3.1-4,4.1.3,2.8-3.9,1.4-3.8,2.5-3.8-.6-2.7,2.4-2.2-3.2-1.8-1.8-2.6-2.1-3.3,1.3-1.6,5.4.9,3.6-.6,2.4-3.2,4.9,4.5.5,3,1.9,1.9.4,1.9-2.6-.5,2,4.2,3.9,2.4,5.5,2.3Z"/><path id="RU" class="cls-6" d="M995.1,61.9l-2.4-1.4-2.7-.8-5.7-2.8-5.2-1.8,3.9.3,1.3-1.5-21-13-6-1.4L947.4,38l-5.1.2-9.6-.9,1.1,1.4,5.4,2-1.6,1-9-2.8-4.4.4-5.8-.6h-4.5l-2.4.7-4.6-.9-3.2-2.3-4.2-1.3-5.9-.5-9.3.6L874,32.6l-5-1.8-25.5-2-1.3,1.3,5.9,2.9-4.8-.4-.6.8-6.2-1-3.1.9-6-1.4,1.9,3.3-5.6-1.3-6.4-2.5-.3-1.2-3.8-2L807,26.6l-3.8.1-6-.5,3,2.3-11-.5-2.4-1.4-8.6-.5-3.2.5-.2.7-3.6-1.9-1.5.6-4.6-.8-3.5-.4.7-.9,4.1-1.6,1.6-.9-1.6-1.5-3.5-1.1-7.3-1.4h-6.9l-1.2.7-2.6-1.4-5.9-.5,2.2-.7-5.2-.9-4,1.2-.5,1.1.9,1.3H728l-3.4,1.5-2.7-.6-5.9.2.2.8-5.9.4-3.1,1.4-2.7.2-.8,1.9,3.6,1.5-5,.4-6-.1-3.7.6,3.1,3.2,4.4,2.6L694,30.4l-5.1.2-3.2,1.2,2.9,2.2-3.2-.6-1.3-2.9-2.7-1.7-1.1.1,2.3,2.1-3,2.1,5.2,2.5.2,3.2,1.9,1.8,3,.2.3,2.1,2.7,1.8-1.2,1.6.3,1.6-2.3.8-.4,1.2-3.3-.5,2.2-4.6-.3-2.1-4.2-2-2.4-4.3-2.4-2.2-2.4-1,.6-2.4L675.3,29l-7.2-.8-1.4.6.4,2.8-2.7,2.8.6,1,3,2.5.1,1.4,3.4.4.5.6,3.7,1.7-.7,1.7L663.3,40l-4.2-1-8.2-.9-.7,1.1L654,41l-1.8,2.1-4.1-1.9L645,42.5h-4.9l-1.3,1.2-3.4-.4,1.6-1.9-2-.1L627.1,44l-4.8,1.5.2,2.1-3.8.7-2.5-1.1-.8-1.8,3.2-.4-2.2-1.8-7.8-1.1,2.7,2-.5,2,3,1.9-.7,2.3-2.9-1.2-2.6-.1-5.1,3.1,2.7,2.5-2,.8-7.4-2.1-1.3,1.3,2.2,1.4.1,1.7-2.4-.9-3.9-1-1.1-3.4-.7-1.6-5.1-2.4,1.8-.4,12.8,2.5,4.1-.9,2.3-1.7-.9-2.2-2.6-1.5-11.2-3.6-7.4-.8-4.8-1.9L575.3,39l-4,1.3-2,.3.2,2.2,4.6,2.2-1.8,2.4,4.1,3.7-1.1,2.8,3.1,2.5-.5,2.3,4.6,2.2-.5,1.7-2.2,2-5,4.4,3.4,1.6-2.9,2,.6.6-1.6,2,1.5,3.2-1,1.2,1.6.7L577,82l1.3,2.1,3.4.9.5.9,1.5-.4,3.1.8.6,1.7-.4,1,2.4,2.3,1.3.7v.6l2.2.6,1.1,1-1.1.7-2.4-.1-.5.4.9,1.2,1.3,2.3,1.1.1.7-.8.9.2,3.1-.4,2.4,2.1-.6.7.5,1.2,2.5.1,1.4,1.6.1.7,4.2,1.3,2.3-.6,2.3,1.7h1.8l4.8,1.1.3,1.2-.8,1.8,1.1,2.1-.2,1.2-3,.3-1.4,1,.3,1.6,2.7-.6.2.8-4.3,1.6,2.1,1.4-2.1,3.1-2.2.6,3.2,2.2,3.9,1.4,4.8,3.1.2-.4,2.9.6,4.9.6,4.8,1.8.8.7,1.8-.6,3.2.8,1.3,1.5,2.3.9.9.1,2.8,2.3,1.5.2.4-.9,1.5-1.5-4.6-4.4-.2-2.5-3.8-3.6,2.3-3.8,2.9-.6.8-2.2-1.7-.6-.1-1.9-2.8-2.4-2.2.1-3.4-2.5,1.1-2.8-1.1-.7,1.4-4.1,3.7,2.1-.3-2.6,5.1-3.9,4.8-.2,7.5,2.6,4.2,1.4,2.8-1.5h4.8l4.6,1.8.5-1.1,4.5.2.1-1.7-6-2.5,2.3-1.8-1-.9,2.5-1-3.2-2.4.9-1.3,10.7-1.2,1.1-.9,6.9-1.3,1.9-1.5,5.8.8,2.8,3.7,2.7-.9,4.4,1.2.7,2,2.8-.2,5.8-3.4-.5,1.1,5.3,2.8,11.6,9.2.7-1.9,5.3,2,3.9-.9,2,.6,2.6,2.2,2.5.7,2.1,1.6,3.8-.6,2.8,2.3,1.1-.3,2.9-.7,4.3-3.1,3.7-1.7,3.3,1.1,3.3.1,3,1.7,3.2.1,5,.9,1.5-2.6-2.5-2.1.9-3.7,4.4,1.5,3,.4,4.2,1,2.3,2.7,5.4,1.5,2.5-.7,3.6-.5,3.4.5,4.1,1.7,3.1,1.9h2.9l4.3.6,2.3-.9,3.7-.6,2.8-2.6,2.1.4L854,107l3.5-.3,4.7,1.4,2.8-2.3-1.2-1.6-.1-3.8.8-1.2-1.6-2-2.3-.8,1-1.9,3.3-.6,3.9-.1,5.4,1.1,3.8,1.3,4.8,3.6,2.4,1.6,2.9,2.2,3.9,3.6,6.3,1.1L904,111l3.7,3.4h4.8l1.7-1.4,4.3-1.1.9,3.3-.2,1.4,1.7,3.9.4,3.7-4.3-.7-1.9,1.3,3,3.2,2.5,4.4-1.6.1,1.2,1.9.9.7-.4-1.3,2.6-2.7,3.3,1.8,2-.1,2.9-2.1.5-2.2,1.4-4.3,1.2-4.4-.8-2.5.6-5.3-3.3-5.8-3.5-4.4-.9-3.6-2.9-3.1-8.1-3.9-3.5-.2-.3,1.7-3.6-.7-3.6-2.3-5.2-.5,3.1-8.3,2.3-6.9,8.3-1,9.5.6,1.6-1.7,5,.6L932,75l4.1-.4,5.3-.9-4.8-2.1V65.8l5.7-1.2,7.8,4.3,2.3-3.8-2.1-2.8,3-.3,4.2,4.8-1.6,2.8-.5,3.5.2,4.4-3.6.8,1.7,1.6V82l4.1,4.9,10.2,8,6.6,5.2,3.6,2.5,1.1-3.4-2.9-3.6,3.6-.9-3.3-4.1,3.1-1.8-3-1.6-2.1-2.9,2.6-.2L971.5,79l-4.3-.7-1.8-1.5-.7-3.3-1.9-2.3,4.4.5.9-1.5,2.9,1.3,3.9-2.7,7.2,2.4-1-1.6,1.2-2.1,1-2.5,1.9-.4,4.2-2.5,6.3.7Z"/><path id="IS" class="cls-6" d="M616.6,168.7l.2,1.5-.4.6h.1l-.4,1.2-1.3-.5-.4,2.5,1,.4-.8.5-.1,1,1.6-.5.2,1.5-1.1,6-.5-.9-2.5-5.5.9-1.2-.3-.2.7-1.8.4-2.8.4-1h1.2l.3-.6.8-.2Z"/><path id="PO" class="cls-5" d="M554,90.3l3.7.4,5.5-.1,1.6.4.9,1.1.4,1.6,1.1,1.4.2,1.4-1.8.8,1.2,1.6.3,1.7,2,3.2-.2,1-1.5.4-2.4,3.1,1,1.6-.7-.2-3.2-1.4-2.2.5-1.5-.4-1.8.8-1.7-1.3-1.2.5-.2-.2-1.6-1.8-2.3-.2-.4-1.2-2-.4-.4.9-1.8-.8.1-1-2.3-.3-1.6-1.2-1.5-2.3.1-1.3-.9-1.9-1.2-1.2.8-1-.9-1.8,2-1.1,4.5-1.6,3.7-1.2,3,.6.4.9Z"/><path id="PE" class="cls-7" d="M245.2,310.3l-3.2-.2-.5.6-2.9.7-4,2.6-.2,1.8-.9,1.3.4,2.1-2.1,1.1.1,1.6-.9.6,1.6,3.4,2.1,2.3-.6,1.6,2.4.2,1.4,2,3.2.1,2.8-2.2.1,5.7,1.6.4,2-.6,3.5,6.1-.7,1.2v2.7l.2,3.2-1.2,1.9.8,1.4-.7,1.3,1.8,3.2-1.8,4-.7,1.9-1.8.9-3.7-2.2-.5-1.5-7.4-3.8-6.7-4.2-3-2.3-1.8-3.1.5-1.1-3.4-4.9-4-6.9-3.8-7.5-1.5-1.8-1.3-2.8-2.9-2.5-2.6-1.5,1.1-1.6-1.9-3.6,1.1-2.6,2.8-2.4.4,1.6-1,.9.2,1.4,1.4-.3,1.5.4,1.6,1.9,2-1.6.6-2.5,2.1-3.3,4.2-1.5,3.9-4,1.1-2.4-.5-2.9,1-.4,2.4,1.8,1.1,1.8,1.6.9,2.2,3.9,2.6.5,2-1,1.3.6,2.1-.4,2.8,1.8-2.2,3.9,1.1.1,1.8,2-.1.2Z"/><path id="AU" class="cls-8" d="M1024.9,386.3l-1.2-1.4-1.8-2.3.4-4-1,.5-.9-1.5-1.7.8-.3-4.1-1.4-2.4.6-.9-2-1.7-2-1.7-3.4-2-.5-2.5.8-2-.3-3.2-.8-.5-.1-1.9-.2-3.2.7-1.7-1.4-1.5-.9-1.5L1005,349l-.8-3,.4-1.3.1-2.2-1-1.9V339l-.8-.4.1-2.4-.9-1.9-1.4,1.4-.3,1.2-.9,2-1.1,2,.3,1.2-.8.8-.9,2.9.1,2.1-.5,1.1.2,1.8-1.7,3-.8,2.1-1.1,1.7-1.1,2-2.6,1.3-3.1-1.3-.3-1.1-1.6-1h-1l-2.1-2.3-1.6-1.2-2.5-1.2-2.4-2.1-.2-1.1,1.6-1.9,1.4-1.9-.2-1.4,1.2-.1,1.6-1.6,1.3-2-1.4-1.9-1,.8-1.2-.4-2.2,1.1-2.1-1.2-1.1.4-2.8-.9-1.7-1.6-2.3-.9-2,.5,2.5,1.3-.2,1.9-3.1.7-1.7-.5-2.3,1.4-1.8,2.2.3.9-1.7,1-2.2,3,.5,2.1-2.2-.4h-2.3L948,348l-2.3-1.8-1.8.5-1.6.6-.3.9-1.4-.4-.3,1-1.8.7-1.2,1.5-2.2,1.8-.9,2.9-1.4-.8-1.4,1.8.9,1.8-1.6.7-.9-3.2-3.1,3.2-.5,2-.4,1.6-2.5,1.8-1.2,2-2.2,1.7-3.9,1.2-2-.2-1,.4-.6.8-2.2.4-3.1,1.4-.9-.4-1.6.3-3,1.4-2,1.6-3.1,1.3-1.9,2.5.2-2.9-1.9,2.7-.1,2.3L892,383l-1,.9-.8,2.2.5,1.1.1,1.2,1,3-.4,1.9-.7-1.5-1.4-1.1.3,3.5-1.2-1.6.1,1.6,1.2,3-.4,2.9,1,1.5-.1,1.2.5,2.4-.9,2.1-.1,2.2.5,3.8-.5,2.3-1.4,2.6-.4,1.4-1,.8-1.8.5-.9,2.2,1.5.7,2.6,2.4h2.2l2.4.1,2.1-1.2,2.2-1,.9.1,2.8-1.9,2.4-.2,2.7-.4,2.6.6,2.3-.3,3-.1,1.9-1.5,1.4-2,3.4-.8,4.4-2,3.1.3,4.4-1.3,5-1.4,6.2-.3,2.5,1.8,2.4.1,3.4,2.3-1,.9,1.1,1.4.9,2.7-1.1,2,1.9,1.6,2.7-3,2.7-1.3,4.3-3.2-1,2.8-2.2,1.8-1.6,2.2-2.8,2.1,3.3-.7,3-2.6-.6,2.8-2,1.8,3,.4.9,1.6-.3,1.9-.9,2.8.8,2.4,2.6,1,1.7.3,1.6.6,2.2,1,4.6-2.7,2.2-.7-1.7,1.9,1.7.7,1.7,1.7,3-1.7,2.4-1.4,4-1.6,3.8-.1,2.7-1.3.5-1.2,2-2.6,2.5-2.8,2.3-1.9,2.8-3.2,2-1.9,2.8-2.9,3.5-1.9,3.1-3.3,2-2.8.9-2.1,2.4-3.4,1.4-1.7,1.6-3.4-.5-3.2,1.1-2.3.7-2.2v-3Z"/></g></g></svg>